<svg width="50" height="50" viewBox="0 0 50 50" fill="none" xmlns="http://www.w3.org/2000/svg">
<mask id="mask0" mask-type="alpha" maskUnits="userSpaceOnUse" x="4" y="4" width="42" height="42">
<path d="M16.6667 35.4167C16.6667 33.2065 17.5446 31.0869 19.1074 29.5241C20.6702 27.9613 22.7899 27.0833 25 27.0833C27.2101 27.0833 29.3298 27.9613 30.8926 29.5241C32.4554 31.0869 33.3333 33.2065 33.3333 35.4167M6.25 35.4167H8.33333H6.25ZM41.6667 35.4167H43.75H41.6667ZM11.6667 22.0833L13.125 23.5417L11.6667 22.0833ZM38.3333 22.0833L36.875 23.5417L38.3333 22.0833Z" stroke="#FC113B" stroke-width="4.16667" stroke-linecap="round" stroke-linejoin="round"/>
<path d="M6.25 43.75H43.75" stroke="#FC113B" stroke-width="4.16667" stroke-linecap="round" stroke-linejoin="round"/>
<path d="M25 6.25V18.75M25 18.75L31.25 12.5M25 18.75L18.75 12.5" stroke="#FC113B" stroke-width="4.16667" stroke-linecap="round" stroke-linejoin="round"/>
</mask>
<g mask="url(#mask0)">
<rect x="4" y="4" width="42" height="42" fill="#F49E12"/>
</g>
</svg>
