<svg width="339" height="252" viewBox="0 0 339 252" fill="none" xmlns="http://www.w3.org/2000/svg">
<path opacity="0.1" d="M33.9977 25.1331C31.894 26.0041 29.735 27.1221 28.579 29.0819C27.3545 31.1522 27.5011 33.723 27.729 36.1183C29.7155 56.8928 34.9486 78.9868 25.9119 97.8047C21.5255 106.934 14.1887 114.25 8.35316 122.541C2.5176 130.832 -1.88838 141.183 0.820984 150.937C4.12954 162.855 16.478 169.462 24.8015 178.634C30.2495 184.63 34.0693 191.917 39.1527 198.226C44.236 204.534 51.2015 210.092 59.3166 210.462C70.9877 210.998 80.4835 200.939 91.9267 198.609C103.65 196.223 115.455 202.295 124.96 209.562C134.466 216.829 143.112 225.633 154.187 230.17C166.418 235.185 180.206 234.418 193.082 237.431C204.805 240.177 215.597 246.018 227.235 249.131C238.874 252.245 252.515 252.056 261.532 244.104C273.285 233.703 272.36 215.178 279.866 201.42C286.838 188.638 300.486 181.007 309.673 169.706C326.202 149.367 325.662 118.28 311.626 96.1602C297.591 74.0402 272.168 60.6466 246.172 57.1593C234.449 55.5895 222.377 55.804 211.106 52.2322C180.939 42.677 162.986 8.4407 132.186 1.31653C112.608 -3.20432 93.568 4.62511 76.8917 14.2616C62.4168 22.6273 49.062 18.8962 33.9977 25.1331Z" fill="#09212D"/>
<path d="M63.3966 92.2469C63.3966 92.2469 52.2824 102.715 40.354 103.027C35.3449 103.127 30.5034 104.846 26.5564 107.925C24.6907 109.397 22.9641 111.037 21.3982 112.823" stroke="#535461" stroke-width="2" stroke-miterlimit="10"/>
<path d="M13.8757 113.08C15.4778 112.267 21.5935 112.807 21.5935 112.807C21.5935 112.807 18.4217 118.056 16.8195 118.868C16.4358 119.095 16.0094 119.241 15.5669 119.297C15.1243 119.353 14.675 119.317 14.2468 119.192C13.8186 119.068 13.4206 118.857 13.0776 118.572C12.7345 118.288 12.4537 117.936 12.2525 117.538C12.0513 117.141 11.9341 116.707 11.908 116.262C11.882 115.818 11.9477 115.373 12.1011 114.955C12.2545 114.537 12.4924 114.155 12.7999 113.832C13.1074 113.51 13.478 113.254 13.8887 113.08H13.8757Z" fill="#308460"/>
<path d="M20.3137 103.801C22.1015 103.989 26.9406 107.759 26.9406 107.759C26.9406 107.759 21.4046 110.444 19.6331 110.259C18.8043 110.134 18.0557 109.695 17.5431 109.033C17.0305 108.371 16.7934 107.537 16.881 106.705C16.9687 105.873 17.3745 105.107 18.0139 104.566C18.6532 104.025 19.477 103.751 20.3137 103.801V103.801Z" fill="#308460"/>
<path d="M35.58 96.3224C37.0259 97.3852 39.2989 103.079 39.2989 103.079C39.2989 103.079 33.1735 102.615 31.7276 101.555C31.0759 101.03 30.6523 100.274 30.5447 99.4444C30.4371 98.6151 30.6539 97.7764 31.15 97.1026C31.646 96.4287 32.3833 95.9717 33.2083 95.8264C34.0334 95.6811 34.8828 95.8588 35.58 96.3224V96.3224Z" fill="#308460"/>
<path d="M48.4071 93.2641C50.0125 94.0669 53.2168 99.2963 53.2168 99.2963C53.2168 99.2963 47.1012 99.8715 45.4958 99.0688C45.0907 98.8922 44.7259 98.6352 44.4235 98.3135C44.1212 97.9917 43.8876 97.6118 43.7371 97.1971C43.5866 96.7823 43.5223 96.3413 43.548 95.9009C43.5738 95.4605 43.6891 95.03 43.8869 94.6355C44.0848 94.241 44.361 93.8909 44.6988 93.6064C45.0366 93.3219 45.4289 93.109 45.8518 92.9807C46.2747 92.8524 46.7193 92.8114 47.1586 92.8601C47.5979 92.9088 48.0227 93.0463 48.4071 93.2641V93.2641Z" fill="#308460"/>
<path d="M30.3436 113.678C30.8777 111.965 29.3146 106.037 29.3146 106.037C29.3146 106.037 24.6644 110.041 24.1303 111.754C23.9798 112.167 23.915 112.607 23.9397 113.046C23.9644 113.485 24.0782 113.915 24.2741 114.309C24.4701 114.703 24.7441 115.053 25.0796 115.338C25.4151 115.623 25.8051 115.837 26.226 115.968C26.6469 116.098 27.09 116.142 27.5283 116.096C27.9666 116.051 28.3911 115.917 28.7761 115.703C29.1611 115.489 29.4985 115.199 29.7679 114.851C30.0374 114.503 30.2332 114.104 30.3436 113.678V113.678Z" fill="#308460"/>
<path d="M45.3004 109.898C45.3004 108.104 42.0277 102.917 42.0277 102.917C42.0277 102.917 38.7908 108.117 38.7941 109.918C38.7967 110.779 39.1422 111.605 39.7548 112.213C40.3673 112.82 41.1966 113.16 42.0603 113.158C42.9239 113.155 43.7512 112.81 44.3601 112.199C44.9689 111.588 45.3096 110.76 45.307 109.898H45.3004Z" fill="#308460"/>
<path d="M59.3325 104.256C59.6321 102.488 57.2874 96.8229 57.2874 96.8229C57.2874 96.8229 53.2136 101.412 52.9173 103.18C52.8172 104.01 53.041 104.846 53.5423 105.515C54.0436 106.184 54.7837 106.635 55.6092 106.774C56.4347 106.912 57.282 106.729 57.9753 106.26C58.6686 105.792 59.1546 105.076 59.3325 104.259V104.256Z" fill="#308460"/>
<path d="M77.8389 64.5237C77.8389 64.5237 64.4516 57.185 60.4723 45.943C58.8374 41.2157 55.7098 37.1454 51.5594 34.3435C49.5787 33.0282 47.4815 31.8967 45.2939 30.9634" stroke="#535461" stroke-width="2" stroke-miterlimit="10"/>
<path d="M42.7539 23.8946C44.0207 25.1654 45.3851 31.1422 45.3851 31.1422C45.3851 31.1422 39.4063 29.7447 38.1395 28.4707C37.5801 27.8507 37.281 27.0397 37.3042 26.2057C37.3274 25.3717 37.6711 24.5785 38.2641 23.9904C38.8571 23.4023 39.654 23.0644 40.4898 23.0465C41.3256 23.0287 42.1362 23.3323 42.7539 23.8946V23.8946Z" fill="#308460"/>
<path d="M53.5817 27.1544C53.9529 28.9094 51.846 34.6653 51.846 34.6653C51.846 34.6653 47.5898 30.2485 47.2186 28.4902C47.1084 28.065 47.0857 27.6219 47.1519 27.1876C47.2181 26.7534 47.3718 26.3371 47.6037 25.9638C47.8356 25.5905 48.1409 25.268 48.5011 25.0157C48.8614 24.7635 49.2692 24.5868 49.6998 24.4962C50.1304 24.4056 50.575 24.4031 51.0066 24.4888C51.4382 24.5745 51.848 24.7466 52.2111 24.9947C52.5742 25.2429 52.8832 25.5619 53.1193 25.9325C53.3554 26.3031 53.5138 26.7177 53.585 27.1512L53.5817 27.1544Z" fill="#308460"/>
<path d="M65.4026 39.3714C64.836 41.0712 60.1043 44.981 60.1043 44.981C60.1043 44.981 58.665 39.0236 59.2316 37.3206C59.5041 36.5017 60.0914 35.8244 60.8642 35.4377C61.637 35.0509 62.5322 34.9865 63.3527 35.2584C64.1731 35.5304 64.8518 36.1165 65.2393 36.8878C65.6267 37.6591 65.6914 38.5525 65.4189 39.3714H65.4026Z" fill="#308460"/>
<path d="M72.2672 50.6004C71.9969 52.3717 67.9947 57.0226 67.9947 57.0226C67.9947 57.0226 65.5654 51.3934 65.8357 49.6222C65.8807 49.1844 66.0144 48.7603 66.2285 48.3757C66.4426 47.991 66.7328 47.6537 67.0814 47.3843C67.4301 47.1149 67.8299 46.919 68.2566 46.8084C68.6834 46.6978 69.1282 46.6748 69.5641 46.7409C70.0001 46.807 70.418 46.9607 70.7926 47.1928C71.1672 47.4249 71.4907 47.7305 71.7434 48.0911C71.9962 48.4517 72.1729 48.8597 72.2629 49.2905C72.353 49.7213 72.3544 50.1658 72.2672 50.5972V50.6004Z" fill="#308460"/>
<path d="M47.2446 39.7191C49.0421 39.6996 54.2134 36.3911 54.2134 36.3911C54.2134 36.3911 48.9672 33.206 47.1697 33.2255C46.306 33.2354 45.4816 33.5873 44.878 34.2038C44.2743 34.8204 43.9407 35.651 43.9507 36.5129C43.9606 37.3749 44.3132 38.1977 44.9309 38.8002C45.5487 39.4026 46.3809 39.7356 47.2446 39.7256V39.7191Z" fill="#308460"/>
<path d="M55.4378 52.765C57.1442 52.2092 61.0877 47.5096 61.0877 47.5096C61.0877 47.5096 55.1252 46.0373 53.4188 46.5931C52.9977 46.713 52.6052 46.9165 52.2647 47.1913C51.9242 47.4661 51.6428 47.8067 51.4372 48.1926C51.2316 48.5784 51.1061 49.0017 51.0682 49.4371C51.0304 49.8725 51.0808 50.3111 51.2167 50.7266C51.3525 51.1421 51.5709 51.5259 51.8589 51.8552C52.1468 52.1845 52.4983 52.4525 52.8923 52.6431C53.2864 52.8337 53.7149 52.943 54.1523 52.9645C54.5897 52.986 55.0269 52.9192 55.4378 52.7682V52.765Z" fill="#308460"/>
<path d="M65.142 64.3547C66.92 64.0947 71.6028 60.1296 71.6028 60.1296C71.6028 60.1296 65.9757 57.6726 64.2009 57.9326C63.7638 57.9776 63.3403 58.1103 62.956 58.323C62.5717 58.5356 62.2345 58.8236 61.9646 59.1697C61.6948 59.5159 61.4979 59.9129 61.3859 60.337C61.2739 60.761 61.249 61.2033 61.3128 61.6372C61.3766 62.0711 61.5277 62.4877 61.757 62.8618C61.9863 63.2359 62.2892 63.5598 62.6472 63.8139C63.0053 64.0681 63.4112 64.2474 63.8405 64.3409C64.2698 64.4344 64.7136 64.4402 65.1453 64.358L65.142 64.3547Z" fill="#308460"/>
<path d="M169.967 242.589C235.073 242.589 287.851 189.914 287.851 124.936C287.851 59.9583 235.073 7.28339 169.967 7.28339C104.862 7.28339 52.0837 59.9583 52.0837 124.936C52.0837 189.914 104.862 242.589 169.967 242.589Z" fill="url(#paint0_linear)"/>
<path d="M169.967 240.639C233.993 240.639 285.897 188.837 285.897 124.936C285.897 61.0353 233.993 9.23346 169.967 9.23346C105.941 9.23346 54.0376 61.0353 54.0376 124.936C54.0376 188.837 105.941 240.639 169.967 240.639Z" fill="#09212D"/>
<path d="M169.967 216.913C220.864 216.913 262.125 175.734 262.125 124.936C262.125 74.1385 220.864 32.959 169.967 32.959C119.07 32.959 77.8097 74.1385 77.8097 124.936C77.8097 175.734 119.07 216.913 169.967 216.913Z" fill="#DDE1EC"/>
<path opacity="0.3" d="M172.572 49.2094H167.362V130.461H172.572V49.2094Z" fill="#535461"/>
<g opacity="0.1">
<path opacity="0.1" d="M249.099 122.986H175.503V129.486H249.099V122.986Z" fill="black"/>
<path opacity="0.1" d="M123.544 98.6671L120.522 104.425L166.83 128.628L169.851 122.87L123.544 98.6671Z" fill="black"/>
<path opacity="0.1" d="M169.967 135.986C175.363 135.986 179.737 131.621 179.737 126.236C179.737 120.851 175.363 116.486 169.967 116.486C164.572 116.486 160.198 120.851 160.198 126.236C160.198 131.621 164.572 135.986 169.967 135.986Z" fill="black"/>
</g>
<path d="M249.099 121.686H175.503V128.186H249.099V121.686Z" fill="#535461"/>
<path d="M169.872 121.577L123.565 97.3745L120.544 103.133L166.851 127.335L169.872 121.577Z" fill="#535461"/>
<path d="M169.967 134.686C175.363 134.686 179.737 130.321 179.737 124.936C179.737 119.551 175.363 115.186 169.967 115.186C164.572 115.186 160.198 119.551 160.198 124.936C160.198 130.321 164.572 134.686 169.967 134.686Z" fill="#535461"/>
<g opacity="0.1">
<path opacity="0.1" d="M84.9673 135.986C84.9673 85.1877 126.227 44.0092 177.125 44.0092C191.411 43.9966 205.503 47.304 218.286 53.6695C231.069 60.035 242.192 69.2837 250.773 80.6831C235.09 52.2384 204.805 32.959 169.961 32.959C119.062 32.959 77.8031 74.1374 77.8031 124.936C77.7731 144.892 84.2761 164.312 96.3225 180.239C88.8519 166.683 84.9452 151.458 84.9673 135.986V135.986Z" fill="black"/>
</g>
<path opacity="0.05" d="M203.281 85.4542C203.281 85.4542 210.569 88.1258 215.33 86.049L217.71 86.1985C217.71 86.1985 221.667 88.9676 225.851 87.7293" fill="black"/>
<path opacity="0.05" d="M190.34 80.1111C190.34 80.1111 190.936 82.9321 190.34 83.8227Z" fill="black"/>
<path d="M313.7 144.394C313.7 144.394 300.075 157.993 307.767 178.169C315.459 198.346 294.585 231.899 294.585 231.899C294.585 231.899 294.81 231.867 295.236 231.795C323.219 226.865 337.121 194.926 321.561 171.198C315.762 162.374 311.014 152.025 313.7 144.394Z" fill="#8AC276"/>
<path d="M313.7 144.394C313.7 144.394 306.009 161.061 313.7 174.659C321.392 188.257 315.003 226.416 294.582 231.899" stroke="#535461" stroke-miterlimit="10"/>
<path d="M337.967 199.392C337.967 199.392 322.421 196.922 321.005 210.826C319.588 224.73 291.101 226.657 291.101 226.657L291.635 227.011C315.146 242.416 337.625 236.823 334.236 216.367C332.985 208.765 333.089 201.128 337.967 199.392Z" fill="#8AC276"/>
<path d="M337.967 199.392C337.967 199.392 325.899 202.034 326.895 212.987C327.892 223.94 308.985 237.067 291.114 226.66" stroke="#535461" stroke-miterlimit="10"/>
<path d="M324.29 227.164C324.29 227.164 312.046 224.72 308.78 221.46C305.514 218.2 290.821 212.5 289.189 216.585C287.558 220.67 267.149 234.509 281.025 236.953C294.901 239.397 313.678 240.203 317.758 238.578C321.838 236.953 324.29 227.164 324.29 227.164Z" fill="#A8A8A8"/>
<path opacity="0.2" d="M281.025 235.429C294.904 237.873 313.678 238.679 317.758 237.054C320.868 235.812 323.027 229.852 323.88 227.076L324.287 227.161C324.287 227.161 321.838 236.937 317.758 238.565C313.678 240.194 294.901 239.381 281.025 236.94C277.02 236.235 275.873 234.577 276.306 232.481C276.645 233.849 278.042 234.902 281.025 235.429Z" fill="black"/>
<defs>
<linearGradient id="paint0_linear" x1="169.967" y1="242.589" x2="169.967" y2="7.28339" gradientUnits="userSpaceOnUse">
<stop stop-color="#808080" stop-opacity="0.25"/>
<stop offset="0.54" stop-color="#808080" stop-opacity="0.12"/>
<stop offset="1" stop-color="#808080" stop-opacity="0.1"/>
</linearGradient>
</defs>
</svg>
