<svg width="2880" height="145" viewBox="0 0 2880 145" fill="none" xmlns="http://www.w3.org/2000/svg">
<path d="M0 7.31518C15.9079 -2.70571 54.4553 -10.2214 81.3815 39.8831C91.7635 32.2004 117.25 23.5491 136.138 50.405C156.232 27.357 209.281 -3.20673 260.722 58.9228C266.918 53.4113 283.228 45.6952 298.901 58.9228C306.939 51.5741 328.54 39.5825 350.644 50.405C366.719 33.3695 409.52 9.51981 452.119 50.405C467.357 33.5365 504.867 9.92064 532.998 50.405C550.413 51.4071 588.358 60.4259 600.816 88.4844C603.496 87.3153 609.758 87.1817 613.375 96.0001C623.255 80.6347 654.87 51.7078 702.292 58.9228C712.507 46.2297 740.873 26.7557 772.622 50.405C785.85 48.4009 816.728 48.8017 834.411 66.4385C842.784 58.9228 867.265 46.8977 898.21 58.9228C902.229 41.2192 920.214 6.81416 960 10.8225V145H0V7.31518Z" fill="white"/>
<path d="M960 10.8186C975.908 1.07417 1014.46 -5.93938 1041.38 42.7829C1051.76 35.3121 1077.25 26.8994 1096.14 53.0146C1116.23 30.6023 1169.28 0.88176 1220.72 61.2974C1226.92 55.9379 1243.23 48.4347 1258.9 61.2974C1266.94 54.1514 1288.54 42.4906 1310.64 53.0146C1326.72 36.449 1369.52 13.2572 1412.12 53.0146C1427.36 36.6114 1464.87 13.647 1493 53.0146C1510.41 53.989 1548.36 62.759 1560.82 90.0435C1563.5 88.9066 1569.76 88.7767 1573.38 97.3518C1583.25 82.4103 1614.87 54.2814 1662.29 61.2974C1672.51 48.9544 1700.87 30.0177 1732.62 53.0146C1745.85 51.0657 1776.73 51.4554 1794.41 68.6057C1802.78 61.2973 1827.27 49.604 1858.21 61.2974C1862.23 44.0822 1880.21 10.6262 1920 14.524V145H960V10.8186Z" fill="white"/>
<path d="M1920 14.524C1935.91 4.77953 1974.46 -5.93949 2001.38 42.7828C2011.76 35.312 2037.25 26.8993 2056.14 53.0145C2076.23 30.6022 2129.28 0.881653 2180.72 61.2973C2186.92 55.9378 2203.23 48.4346 2218.9 61.2973C2226.94 54.1513 2248.54 42.4905 2270.64 53.0145C2286.72 36.4489 2329.52 13.2571 2372.12 53.0145C2387.36 36.6113 2424.87 13.6469 2453 53.0145C2470.41 53.9889 2508.36 62.7589 2520.82 90.0434C2523.5 88.9065 2529.76 88.7766 2533.38 97.3517C2543.25 82.4102 2574.87 54.2813 2622.29 61.2973C2632.51 48.9543 2660.87 30.0176 2692.62 53.0145C2705.85 51.0656 2736.73 51.4553 2754.41 68.6056C2762.78 61.2972 2787.27 49.6039 2818.21 61.2973C2822.23 44.0821 2840.21 10.6261 2880 14.5239V145L1920 145V14.524Z" fill="white"/>
</svg>
