<svg width="2878" height="336" viewBox="0 0 2878 336" fill="none" xmlns="http://www.w3.org/2000/svg">
<path d="M0 0C13.507 2.67463 41.7217 15.3457 46.5242 44.6328C62.0323 41.1224 97.4508 41.9248 115.06 73.2179C129.234 67.3672 161.684 60.1791 178.093 78.2328C187.097 73.3851 211.21 65.5952 235.623 73.2179C240.459 68.8716 252.932 61.483 264.138 66.6985C278.478 56.8358 309.561 46.6388 319.166 84.7522C344.346 81.409 399.008 84.2507 416.217 122.364C420.552 117.349 432.725 108.423 446.733 112.836C453.736 98.6269 475.748 76.8287 507.764 103.307C516.269 100.633 534.678 97.9916 540.281 108.824C547.785 99.9642 569.997 83.4484 598.812 88.2627C610.318 74.7224 640.934 53.76 671.35 78.2328C677.353 71.0448 694.662 57.6716 715.873 61.6836C737.084 65.6955 753.392 78.7343 758.895 84.7522C773.069 74.8896 809.221 58.474 840.438 71.7134C846.441 57.6716 867.452 29.889 903.471 31.0925C906.806 20.394 922.781 -0.70209 960 0.501493V336H0V0Z" fill="#C8DDF1"/>
<path d="M959 0.5C981 0.5 1000.72 15.8692 1005.52 45.1086C1021.03 41.6039 1056.45 42.4049 1074.06 73.647C1088.23 67.8058 1120.68 60.6295 1137.09 78.6537C1146.1 73.8139 1170.21 66.0367 1194.62 73.647C1199.46 69.3078 1211.93 61.9312 1223.14 67.1382C1237.48 57.2916 1268.56 47.1113 1278.17 85.1625C1303.35 81.8247 1358.01 84.6618 1375.22 122.713C1379.55 117.706 1391.73 108.794 1405.73 113.2C1412.74 99.0145 1434.75 77.2518 1466.76 103.687C1475.27 101.017 1493.68 98.3803 1499.28 109.195C1506.79 100.35 1529 83.8607 1557.81 88.6672C1569.32 75.149 1599.93 54.2208 1630.35 78.6537C1636.35 71.4774 1653.66 58.1261 1674.87 62.1315C1696.08 66.1369 1712.39 79.1544 1717.9 85.1625C1732.07 75.3159 1768.22 58.9272 1799.44 72.145C1805.44 58.1261 1826.45 30.3888 1862.47 31.5904C1865.81 20.9094 1881.78 -0.152314 1919 1.0493V336H959V0.5Z" fill="#C8DDF1"/>
<path d="M1918 1C1940 1 1959.72 16.3463 1964.52 45.5421C1980.03 42.0426 2015.45 42.8425 2033.06 74.038C2047.23 68.2055 2079.68 61.0399 2096.09 79.0373C2105.1 74.2046 2129.21 66.4391 2153.62 74.038C2158.46 69.7053 2170.93 62.3397 2182.14 67.5389C2196.48 57.707 2227.56 47.5418 2237.17 85.5363C2262.35 82.2035 2317.01 85.0364 2334.22 123.031C2338.55 118.032 2350.73 109.133 2364.73 113.532C2371.74 99.3676 2393.75 77.6375 2425.76 104.034C2434.27 101.367 2452.68 98.7344 2458.28 109.533C2465.79 100.701 2488 84.2365 2516.81 89.0358C2528.32 75.5378 2558.93 54.6408 2589.35 79.0373C2595.35 71.8716 2612.66 58.5402 2633.87 62.5397C2655.08 66.5391 2671.39 79.5372 2676.9 85.5363C2691.07 75.7044 2727.22 59.3401 2758.44 72.5382C2764.44 58.5402 2785.45 30.8442 2821.47 32.0441C2824.81 21.3789 2840.78 0.348659 2878 1.54848V336H1918V1Z" fill="#C8DDF1"/>
</svg>
