<svg width="2880" height="226" viewBox="0 0 2880 226" fill="none" xmlns="http://www.w3.org/2000/svg">
<path d="M0 49.8203C10.3441 41.502 35.8373 31.254 55.0574 56.8076C71.2409 45.1621 109.514 28.8584 133.139 56.8076C147.654 20.5401 195.203 -34.9257 269.28 33.3502C282.795 27.5274 315.228 24.0671 336.851 56.8076C339.02 53.4803 345.66 48.8221 354.87 56.8076C365.047 43.6648 393.91 25.2649 427.946 56.8076C437.956 52.6484 461.581 46.8257 475.996 56.8076C494.682 41.502 535.958 25.1651 551.575 82.2613C556.58 82.2613 567.791 85.0562 572.596 96.2359C580.104 79.7658 608.033 48.8221 659.687 56.8076C663.358 38.0084 679.408 6.9981 714.244 33.3502C726.757 32.0193 752.684 36.0453 756.288 62.7967C773.139 56.1421 811.345 49.2213 829.364 74.7749C828.029 52.8148 835.971 7.49719 878.415 1.90735C920.859 -3.68249 950.49 30.8547 960 48.8221V226H0V49.8203Z" fill="#E0EFFF"/>
<path d="M960 48.8242C970.344 40.469 995.837 30.3885 1015.06 56.0556C1031.24 44.3583 1069.51 27.9822 1093.14 56.0556C1107.65 19.627 1155.2 -36.0854 1229.28 32.494C1242.79 26.6453 1275.23 23.1696 1296.85 56.0556C1299.02 52.7135 1305.66 48.0346 1314.87 56.0556C1325.05 42.8544 1353.91 24.3727 1387.95 56.0556C1397.96 51.878 1421.58 46.0294 1436 56.0556C1454.68 40.682 1495.96 24.2725 1511.57 81.6224C1516.58 81.6224 1527.79 84.4298 1532.6 95.6591C1540.1 79.1159 1568.03 48.0346 1619.69 56.0556C1623.36 37.1729 1639.41 6.02476 1674.24 32.494C1686.76 31.1571 1712.68 35.2011 1716.29 62.0713C1733.14 55.3872 1771.35 48.4357 1789.36 74.1028C1788.03 52.0451 1795.97 6.52607 1838.41 0.911383C1880.86 -4.7033 1910.49 29.9874 1920 48.0346V226H960V48.8242Z" fill="#E0EFFF"/>
<path d="M1920 48C1930.34 39.6448 1955.84 30.3885 1975.06 56.0556C1991.24 44.3583 2029.51 27.9822 2053.14 56.0556C2067.65 19.627 2115.2 -36.0854 2189.28 32.494C2202.79 26.6453 2235.23 23.1696 2256.85 56.0556C2259.02 52.7135 2265.66 48.0346 2274.87 56.0556C2285.05 42.8544 2313.91 24.3727 2347.95 56.0556C2357.96 51.878 2381.58 46.0294 2396 56.0556C2414.68 40.682 2455.96 24.2725 2471.57 81.6224C2476.58 81.6224 2487.79 84.4298 2492.6 95.6591C2500.1 79.1159 2528.03 48.0346 2579.69 56.0556C2583.36 37.1729 2599.41 6.02476 2634.24 32.494C2646.76 31.1571 2672.68 35.2011 2676.29 62.0713C2693.14 55.3872 2731.35 48.4357 2749.36 74.1028C2748.03 52.0451 2755.97 6.52607 2798.41 0.911383C2840.86 -4.7033 2870.49 29.9874 2880 48.0346V226H1920V48Z" fill="#E0EFFF"/>
</svg>
