<svg width="712" height="330" viewBox="0 0 712 330" fill="none" xmlns="http://www.w3.org/2000/svg">
<g clip-path="url(#clip0)">
<path d="M269.024 139.01H225.696C222.25 139.006 218.946 137.635 216.51 135.199C214.073 132.763 212.702 129.46 212.698 126.014V44.8926C212.702 41.4472 214.073 38.1441 216.51 35.7079C218.946 33.2716 222.25 31.9013 225.696 31.8974H269.024C272.47 31.9013 275.774 33.2716 278.211 35.7079C280.648 38.1441 282.018 41.4472 282.022 44.8926V126.014C282.018 129.46 280.648 132.763 278.211 135.199C275.774 137.635 272.47 139.006 269.024 139.01Z" fill="#050505" fill-opacity="0.2"/>
<path d="M535.138 319.901H525.481L520.886 282.657L535.14 282.658L535.138 319.901Z" fill="#FFB8B8"/>
<path d="M537.601 329.261L506.46 329.26V328.866C506.46 327.275 506.774 325.699 507.383 324.229C507.992 322.758 508.885 321.422 510.01 320.297C511.136 319.172 512.472 318.279 513.943 317.67C515.413 317.061 516.989 316.748 518.581 316.748H518.582L537.602 316.749L537.601 329.261Z" fill="#EFEFEF"/>
<path d="M643.028 310.867L633.924 314.09L617.156 280.517L630.592 275.76L643.028 310.867Z" fill="#FFB8B8"/>
<path d="M648.475 318.868L619.121 329.261L618.989 328.89C618.458 327.39 618.227 325.8 618.31 324.21C618.393 322.621 618.789 321.064 619.474 319.628C620.159 318.191 621.121 316.904 622.304 315.839C623.487 314.774 624.868 313.952 626.368 313.421L626.369 313.421L644.298 307.073L648.475 318.868Z" fill="#EFEFEF"/>
<path d="M534.869 307.396C534.653 307.396 534.436 307.376 534.223 307.338L522.413 305.191C521.609 305.042 520.881 304.622 520.351 304C519.82 303.378 519.52 302.593 519.5 301.775C517.784 222.297 526.224 168.887 544.586 130.604C544.912 129.927 545.447 129.371 546.112 129.02C546.777 128.668 547.537 128.538 548.281 128.65L590.751 134.78C591.526 134.892 592.243 135.258 592.788 135.821C593.334 136.383 593.678 137.11 593.767 137.888L597.512 170.891C597.532 171.069 597.569 171.245 597.623 171.416L638.343 293.389C638.62 294.276 638.54 295.237 638.118 296.066C637.696 296.895 636.966 297.526 636.085 297.824L625.081 301.491C624.271 301.757 623.393 301.724 622.605 301.398C621.818 301.071 621.173 300.474 620.789 299.713L565.709 195.88C565.6 195.662 565.426 195.482 565.21 195.367C564.995 195.252 564.749 195.206 564.506 195.236C564.264 195.266 564.037 195.371 563.856 195.536C563.676 195.7 563.551 195.917 563.498 196.155L538.32 304.611C538.15 305.399 537.715 306.106 537.087 306.613C536.459 307.12 535.676 307.396 534.869 307.396Z" fill="#111111"/>
<path d="M501.304 66.2341C501.401 66.6591 501.464 67.091 501.493 67.5259L535.333 87.044L543.559 82.3098L552.328 93.7868L538.581 103.582C537.47 104.374 536.133 104.784 534.769 104.75C533.406 104.717 532.09 104.243 531.02 103.398L496.124 75.8753C494.549 76.4581 492.834 76.5478 491.207 76.1323C489.58 75.7169 488.118 74.8161 487.016 73.5497C485.913 72.2833 485.223 70.7114 485.036 69.043C484.849 67.3745 485.174 65.6887 485.969 64.2097C486.763 62.7307 487.99 61.5287 489.484 60.7634C490.979 59.9982 492.671 59.706 494.336 59.9258C496.001 60.1455 497.559 60.8668 498.804 61.9937C500.049 63.1206 500.921 64.5996 501.304 66.2341Z" fill="#FFB8B8"/>
<path d="M535.799 85.0929C535.9 84.5939 536.109 84.1228 536.409 83.7116C536.71 83.3005 537.096 82.959 537.541 82.7105L553.07 74.0291C555.133 72.4366 557.744 71.7272 560.329 72.0563C562.915 72.3855 565.265 73.7263 566.863 75.7848C568.461 77.8433 569.178 80.4514 568.856 83.0374C568.533 85.6233 567.198 87.9759 565.144 89.5793L552.762 102.434C552.409 102.801 551.98 103.087 551.506 103.273C551.032 103.46 550.524 103.542 550.015 103.514C549.506 103.486 549.01 103.349 548.559 103.112C548.108 102.875 547.713 102.543 547.402 102.14L536.465 87.9684C536.153 87.5652 535.933 87.0996 535.818 86.6034C535.703 86.1072 535.696 85.5919 535.799 85.0929Z" fill="#FFCC33"/>
<path d="M571.962 64.2884C582.648 64.2884 591.31 55.6278 591.31 44.9444C591.31 34.261 582.648 25.6004 571.962 25.6004C561.276 25.6004 552.613 34.261 552.613 44.9444C552.613 55.6278 561.276 64.2884 571.962 64.2884Z" fill="#FFB8B8"/>
<path d="M590.802 138.906C590.61 138.906 590.418 138.89 590.229 138.859L548.356 131.996C547.883 131.919 547.43 131.746 547.026 131.489C546.622 131.231 546.274 130.895 546.003 130.499C545.733 130.103 545.545 129.657 545.452 129.187C545.359 128.717 545.362 128.232 545.462 127.764L547.499 118.162C546.456 116.607 537.965 103.083 548.307 90.38C548.108 85.8673 549.68 81.4553 552.686 78.0835C555.693 74.7117 559.897 72.6462 564.404 72.3269L586.043 70.6833C588.827 70.4721 591.621 70.9325 594.189 72.0257C596.758 73.1189 599.026 74.813 600.804 76.9653C602.581 79.1176 603.815 81.6653 604.403 84.3939C604.99 87.1225 604.913 89.9523 604.179 92.6451L594.259 136.149C594.079 136.932 593.639 137.63 593.011 138.131C592.384 138.631 591.605 138.904 590.802 138.906Z" fill="#FFCC33"/>
<path d="M629.904 175.285C630.614 174.272 631.094 173.116 631.309 171.898C631.524 170.679 631.469 169.429 631.148 168.234C630.827 167.04 630.249 165.93 629.453 164.983C628.656 164.036 627.662 163.276 626.54 162.755L602.7 89.4718L588.883 96.0261L614.969 167.381C614.218 169.323 614.206 171.474 614.935 173.424C615.664 175.375 617.084 176.991 618.925 177.965C620.766 178.939 622.9 179.204 624.924 178.71C626.948 178.217 628.72 176.998 629.904 175.285Z" fill="#FFB8B8"/>
<path d="M607.973 101.673L589.627 107.213C589.105 107.371 588.555 107.414 588.015 107.34C587.475 107.266 586.957 107.077 586.496 106.785C586.036 106.492 585.644 106.105 585.347 105.647C585.05 105.19 584.855 104.674 584.776 104.135L581.99 85.2367C581.198 82.5617 581.498 79.6815 582.827 77.228C584.155 74.7745 586.403 72.9479 589.077 72.1489C591.75 71.35 594.632 71.6438 597.089 72.9661C599.546 74.2884 601.379 76.5312 602.184 79.2023L610.308 96.4238C610.541 96.9169 610.664 97.4544 610.67 97.9995C610.676 98.5446 610.564 99.0847 610.343 99.5828C610.121 100.081 609.795 100.525 609.386 100.886C608.977 101.247 608.495 101.515 607.973 101.673H607.973Z" fill="#FFCC33"/>
<path d="M553.154 45.6916C557.449 47.3282 562.125 47.6962 566.623 46.7517C571.122 45.8071 575.255 43.5899 578.529 40.3641C576.499 45.7247 577.067 68.4605 577.067 68.4605C577.067 68.4605 595.064 59.9178 597.506 58.4238C611.928 49.5995 592.038 11.2134 575.491 17.2672C572.688 18.2926 570.348 19.499 569.214 22.2589C566.743 19.2119 562.066 18.551 558.469 20.116C554.871 21.6811 552.314 25.0727 550.939 28.7463C549.853 31.7108 549.431 34.8773 549.702 38.0226C549.973 41.1678 550.931 44.2153 552.509 46.9502L553.154 45.6916Z" fill="black"/>
<path d="M468.724 0H25.9965C19.1039 0.00676411 12.4955 2.74721 7.62167 7.6199C2.74785 12.4926 0.00676568 19.0994 0 25.9905V147.279C0.00676568 154.17 2.74785 160.777 7.62167 165.65C12.4955 170.522 19.1039 173.263 25.9965 173.27H468.724C475.617 173.263 482.225 170.522 487.099 165.65C491.973 160.777 494.714 154.17 494.721 147.279V25.9905C494.714 19.0994 491.973 12.4926 487.099 7.6199C482.225 2.74721 475.617 0.00676411 468.724 0ZM493.145 147.279C493.137 153.752 490.561 159.957 485.983 164.534C481.405 169.111 475.199 171.686 468.724 171.695H25.9965C19.5222 171.686 13.3154 169.111 8.7374 164.534C4.15937 159.957 1.58381 153.752 1.57554 147.279V25.9905C1.58381 19.5177 4.15937 13.3123 8.7374 8.73537C13.3154 4.15841 19.5222 1.58344 25.9965 1.57518H468.724C475.199 1.58344 481.405 4.15841 485.983 8.73537C490.561 13.3123 493.137 19.5177 493.145 25.9905V147.279Z" fill="#3F3D56"/>
<path d="M69.9147 114.594C68.045 114.594 66.2173 114.04 64.6627 113.001C63.1082 111.963 61.8965 110.487 61.181 108.76C60.4655 107.033 60.2783 105.133 60.6431 103.299C61.0078 101.466 61.9082 99.782 63.2302 98.4603C64.5523 97.1385 66.2367 96.2384 68.0705 95.8737C69.9042 95.5091 71.8049 95.6962 73.5323 96.4116C75.2597 97.1269 76.7361 98.3383 77.7748 99.8925C78.8135 101.447 79.368 103.274 79.368 105.143C79.3651 107.649 78.3682 110.051 76.596 111.823C74.8238 113.595 72.421 114.591 69.9147 114.594V114.594ZM69.9147 97.2673C68.3566 97.2673 66.8336 97.7292 65.5381 98.5946C64.2426 99.4601 63.2329 100.69 62.6366 102.129C62.0404 103.568 61.8844 105.152 62.1883 106.68C62.4923 108.207 63.2426 109.611 64.3443 110.712C65.446 111.814 66.8497 112.564 68.3778 112.868C69.906 113.172 71.4899 113.016 72.9294 112.42C74.3688 111.823 75.5992 110.814 76.4648 109.519C77.3304 108.224 77.7924 106.701 77.7924 105.143C77.7901 103.055 76.9593 101.053 75.4825 99.5767C74.0056 98.1002 72.0033 97.2697 69.9147 97.2673V97.2673Z" fill="#3F3D56" stroke="#3F3D56" stroke-width="2"/>
<path d="M69.6044 92.3294C69.3955 92.3294 69.1951 92.2464 69.0474 92.0987C68.8996 91.951 68.8167 91.7507 68.8167 91.5418V82.4845C68.8167 82.2756 68.8996 82.0753 69.0474 81.9276C69.1951 81.7799 69.3955 81.6969 69.6044 81.6969C69.8134 81.6969 70.0137 81.7799 70.1615 81.9276C70.3092 82.0753 70.3922 82.2756 70.3922 82.4845V91.5418C70.3922 91.7507 70.3092 91.951 70.1615 92.0987C70.0137 92.2464 69.8134 92.3294 69.6044 92.3294Z" fill="#3F3D56" stroke="#3F3D56" stroke-width="2"/>
<path d="M56.3104 105.621H47.251C47.0421 105.621 46.8417 105.538 46.694 105.39C46.5463 105.242 46.4633 105.042 46.4633 104.833C46.4633 104.624 46.5463 104.424 46.694 104.276C46.8417 104.129 47.0421 104.046 47.251 104.046H56.3104C56.5193 104.046 56.7197 104.129 56.8675 104.276C57.0152 104.424 57.0982 104.624 57.0982 104.833C57.0982 105.042 57.0152 105.242 56.8675 105.39C56.7197 105.538 56.5193 105.621 56.3104 105.621Z" fill="#3F3D56" stroke="#3F3D56" stroke-width="2"/>
<path d="M92.3967 105.621H83.3373C83.1284 105.621 82.928 105.538 82.7803 105.39C82.6326 105.242 82.5496 105.042 82.5496 104.833C82.5496 104.624 82.6326 104.424 82.7803 104.276C82.928 104.129 83.1284 104.046 83.3373 104.046H92.3967C92.6057 104.046 92.806 104.129 92.9537 104.276C93.1015 104.424 93.1845 104.624 93.1845 104.833C93.1845 105.042 93.1015 105.242 92.9537 105.39C92.806 105.538 92.6057 105.621 92.3967 105.621Z" fill="#3F3D56" stroke="#3F3D56" stroke-width="2"/>
<path d="M81.0886 97.0093C80.9317 97.0093 80.7785 96.9625 80.6484 96.8749C80.5183 96.7873 80.4174 96.6628 80.3585 96.5175C80.2996 96.3722 80.2854 96.2126 80.3177 96.0592C80.3501 95.9058 80.4275 95.7655 80.54 95.6564L84.3339 91.9765C84.4838 91.831 84.6855 91.7511 84.8944 91.7543C85.1033 91.7574 85.3024 91.8434 85.4479 91.9934C85.5933 92.1433 85.6733 92.3449 85.6701 92.5537C85.6669 92.7626 85.5809 92.9616 85.4309 93.1071L81.6371 96.787C81.4903 96.9298 81.2934 97.0096 81.0886 97.0093V97.0093Z" fill="#3F3D56" stroke="#3F3D56" stroke-width="2"/>
<path d="M57.9532 97.0093C57.7484 97.0095 57.5515 96.9298 57.4047 96.787L53.6108 93.1071C53.5366 93.0351 53.4773 92.9491 53.4362 92.8542C53.3952 92.7592 53.3732 92.6572 53.3717 92.5537C53.3701 92.4503 53.3889 92.3476 53.4271 92.2514C53.4652 92.1553 53.5219 92.0676 53.5939 91.9934C53.666 91.9191 53.7519 91.8598 53.8469 91.8188C53.9418 91.7778 54.044 91.7558 54.1474 91.7543C54.2508 91.7527 54.3536 91.7715 54.4498 91.8096C54.5459 91.8477 54.6336 91.9044 54.7079 91.9765L58.5017 95.6564C58.6143 95.7655 58.6917 95.9058 58.7241 96.0592C58.7564 96.2126 58.7422 96.3722 58.6833 96.5175C58.6244 96.6628 58.5234 96.7873 58.3934 96.8749C58.2633 96.9625 58.11 97.0093 57.9532 97.0093Z" fill="#3F3D56" stroke="#3F3D56" stroke-width="2"/>
<path d="M54.9471 118.532C54.7923 118.532 54.6409 118.487 54.5119 118.401C54.3829 118.315 54.2819 118.194 54.2216 118.051C54.1613 117.909 54.1444 117.752 54.1729 117.599C54.2014 117.447 54.2741 117.307 54.3819 117.196L58.1757 113.29C58.3213 113.14 58.5205 113.054 58.7294 113.051C58.9383 113.048 59.1399 113.128 59.2899 113.273C59.4398 113.419 59.5257 113.618 59.5288 113.827C59.5319 114.036 59.4518 114.237 59.3062 114.387L55.5124 118.293C55.439 118.369 55.3511 118.429 55.254 118.47C55.1569 118.511 55.0525 118.532 54.9471 118.532V118.532Z" fill="#3F3D56" stroke="#3F3D56" stroke-width="2"/>
<path d="M85.6703 119.32C85.5652 119.32 85.4611 119.299 85.3642 119.258C85.2674 119.217 85.1798 119.158 85.1065 119.082L80.5249 114.389C80.4527 114.315 80.3957 114.227 80.3573 114.131C80.3189 114.035 80.2998 113.932 80.3011 113.829C80.3024 113.726 80.324 113.623 80.3647 113.528C80.4055 113.433 80.4646 113.347 80.5386 113.275C80.6126 113.203 80.7001 113.146 80.7962 113.107C80.8922 113.069 80.9949 113.05 81.0983 113.051C81.2017 113.053 81.3039 113.074 81.3989 113.115C81.494 113.156 81.5801 113.215 81.6524 113.289L86.234 117.982C86.3423 118.093 86.4154 118.234 86.4443 118.386C86.4731 118.538 86.4564 118.695 86.3963 118.838C86.3361 118.981 86.2351 119.103 86.1059 119.189C85.9768 119.274 85.8252 119.32 85.6703 119.32Z" fill="#3F3D56" stroke="#3F3D56" stroke-width="2"/>
<path d="M69.6044 128.196C69.3955 128.196 69.1951 128.113 69.0474 127.965C68.8996 127.817 68.8167 127.617 68.8167 127.408V118.351C68.8167 118.142 68.8996 117.942 69.0474 117.794C69.1951 117.646 69.3955 117.563 69.6044 117.563C69.8134 117.563 70.0137 117.646 70.1615 117.794C70.3092 117.942 70.3922 118.142 70.3922 118.351V127.408C70.3922 127.617 70.3092 127.817 70.1615 127.965C70.0137 128.113 69.8134 128.196 69.6044 128.196Z" fill="#3F3D56" stroke="#3F3D56" stroke-width="2"/>
<path d="M172.651 120.107H146.354C143.668 120.062 141.107 118.963 139.223 117.048C137.34 115.133 136.284 112.555 136.284 109.869C136.284 107.183 137.34 104.605 139.223 102.689C141.107 100.774 143.668 99.6755 146.354 99.6301H148.365C149.362 97.5178 150.938 95.7311 152.909 94.4767C154.88 93.2223 157.166 92.5514 159.502 92.5418C162.679 92.5709 165.726 93.8085 168.023 96.0029C170.32 98.1974 171.695 101.184 171.868 104.356H172.651C174.718 104.39 176.688 105.234 178.138 106.708C179.587 108.181 180.4 110.165 180.4 112.232C180.4 114.298 179.587 116.282 178.138 117.755C176.688 119.229 174.718 120.073 172.651 120.107V120.107ZM146.354 101.205C144.086 101.251 141.926 102.183 140.338 103.803C138.75 105.423 137.86 107.601 137.86 109.869C137.86 112.137 138.75 114.315 140.338 115.934C141.926 117.554 144.086 118.487 146.354 118.532H172.651C174.3 118.498 175.87 117.819 177.024 116.641C178.178 115.464 178.824 113.88 178.824 112.232C178.824 110.583 178.178 108.999 177.024 107.822C175.87 106.644 174.3 105.965 172.651 105.931H171.104C170.895 105.931 170.695 105.848 170.547 105.7C170.399 105.552 170.316 105.352 170.316 105.143C170.341 102.248 169.217 99.4619 167.19 97.3948C165.162 95.3278 162.398 94.149 159.502 94.117C157.385 94.1282 155.318 94.7607 153.557 95.936C151.796 97.1113 150.419 98.7777 149.596 100.728C149.536 100.87 149.435 100.991 149.306 101.075C149.177 101.16 149.026 101.205 148.872 101.205H146.354Z" fill="#3F3D56" stroke="#3F3D56" stroke-width="2"/>
<path d="M260.494 105.188L259.88 103.737C261.071 103.234 262.121 102.444 262.935 101.439C263.749 100.434 264.304 99.2436 264.549 97.9735C264.794 96.7034 264.722 95.3924 264.34 94.1565C263.959 92.9206 263.278 91.7977 262.359 90.887C261.44 89.9763 260.311 89.3058 259.072 88.9348C257.832 88.5638 256.521 88.5037 255.252 88.7597C253.984 89.0157 252.798 89.5801 251.8 90.4029C250.802 91.2257 250.021 92.2816 249.528 93.4774L248.072 92.8767C248.664 91.4418 249.6 90.1748 250.798 89.1875C251.996 88.2002 253.419 87.523 254.941 87.2157C256.462 86.9085 258.036 86.9806 259.524 87.4258C261.011 87.871 262.366 88.6754 263.468 89.7682C264.571 90.8609 265.387 92.2083 265.846 93.6913C266.304 95.1744 266.39 96.7474 266.096 98.2715C265.802 99.7955 265.137 101.224 264.16 102.43C263.183 103.636 261.924 104.583 260.494 105.188V105.188Z" fill="#3F3D56" stroke="#3F3D56" stroke-width="2"/>
<path d="M261.669 120.107H235.372C232.686 120.062 230.125 118.963 228.242 117.048C226.358 115.133 225.303 112.555 225.303 109.869C225.303 107.183 226.358 104.605 228.242 102.689C230.125 100.774 232.686 99.6755 235.372 99.6301H237.383C238.381 97.5178 239.956 95.7311 241.927 94.4767C243.898 93.2223 246.184 92.5514 248.521 92.5418C251.698 92.5709 254.744 93.8085 257.041 96.0029C259.338 98.1974 260.713 101.184 260.886 104.356H261.669C263.736 104.39 265.707 105.234 267.156 106.708C268.606 108.181 269.418 110.165 269.418 112.232C269.418 114.298 268.606 116.282 267.156 117.755C265.707 119.229 263.736 120.073 261.669 120.107V120.107ZM235.372 101.205C233.104 101.251 230.944 102.183 229.356 103.803C227.768 105.423 226.878 107.601 226.878 109.869C226.878 112.137 227.768 114.315 229.356 115.934C230.944 117.554 233.104 118.487 235.372 118.532H261.669C263.318 118.498 264.888 117.819 266.042 116.641C267.196 115.464 267.842 113.88 267.842 112.232C267.842 110.583 267.196 108.999 266.042 107.822C264.888 106.644 263.318 105.965 261.669 105.931H260.122C259.913 105.931 259.713 105.848 259.565 105.7C259.418 105.552 259.335 105.352 259.335 105.143C259.36 102.248 258.235 99.4619 256.208 97.3948C254.181 95.3278 251.416 94.149 248.521 94.117C246.403 94.1282 244.336 94.7607 242.575 95.936C240.814 97.1113 239.437 98.7777 238.615 100.728C238.554 100.87 238.453 100.991 238.324 101.075C238.195 101.16 238.045 101.205 237.891 101.205H235.372Z" fill="#3F3D56" stroke="#3F3D56" stroke-width="2"/>
<path d="M350.687 116.169H347.525C347.316 116.169 347.116 116.086 346.968 115.939C346.821 115.791 346.738 115.591 346.738 115.382C346.738 115.173 346.821 114.973 346.968 114.825C347.116 114.677 347.316 114.594 347.525 114.594H350.687C352.336 114.56 353.906 113.881 355.06 112.703C356.214 111.526 356.861 109.942 356.861 108.294C356.861 106.645 356.214 105.062 355.06 103.884C353.906 102.706 352.336 102.027 350.687 101.993H349.14C348.932 101.993 348.731 101.91 348.583 101.762C348.436 101.614 348.353 101.414 348.353 101.205C348.378 98.3104 347.253 95.5239 345.226 93.4569C343.199 91.3898 340.434 90.211 337.539 90.179C335.421 90.1902 333.354 90.8227 331.593 91.998C329.832 93.1734 328.455 94.8397 327.633 96.7904C327.572 96.932 327.471 97.0526 327.342 97.1373C327.214 97.2221 327.063 97.2673 326.909 97.2673H324.39C322.122 97.3128 319.962 98.2455 318.374 99.8653C316.786 101.485 315.897 103.663 315.897 105.931C315.897 108.199 316.786 110.377 318.374 111.996C319.962 113.616 322.122 114.549 324.39 114.594H326.832C327.041 114.594 327.242 114.677 327.389 114.825C327.537 114.973 327.62 115.173 327.62 115.382C327.62 115.591 327.537 115.791 327.389 115.939C327.242 116.086 327.041 116.169 326.832 116.169H324.39C321.704 116.124 319.143 115.025 317.26 113.11C315.376 111.195 314.321 108.617 314.321 105.931C314.321 103.245 315.376 100.667 317.26 98.7514C319.143 96.8362 321.704 95.7376 324.39 95.6921H326.401C327.399 93.5799 328.974 91.7931 330.945 90.5387C332.916 89.2843 335.202 88.6135 337.539 88.6038C340.716 88.6329 343.762 89.8705 346.059 92.065C348.356 94.2594 349.731 97.246 349.904 100.418H350.687C352.754 100.452 354.725 101.296 356.174 102.77C357.624 104.243 358.436 106.227 358.436 108.294C358.436 110.36 357.624 112.344 356.174 113.817C354.725 115.291 352.754 116.135 350.687 116.169V116.169Z" fill="#3F3D56" stroke="#3F3D56" stroke-width="2"/>
<path d="M337.408 119.569C337.199 119.569 336.999 119.486 336.851 119.339C336.704 119.191 336.621 118.991 336.621 118.782V109.725C336.621 109.516 336.704 109.315 336.851 109.168C336.999 109.02 337.199 108.937 337.408 108.937C337.617 108.937 337.818 109.02 337.965 109.168C338.113 109.315 338.196 109.516 338.196 109.725V118.782C338.196 118.991 338.113 119.191 337.965 119.339C337.818 119.486 337.617 119.569 337.408 119.569V119.569Z" fill="#3F3D56" stroke="#3F3D56" stroke-width="2"/>
<path d="M331.894 124.295C331.685 124.295 331.485 124.212 331.337 124.064C331.189 123.917 331.106 123.716 331.106 123.507V114.45C331.106 114.241 331.189 114.041 331.337 113.893C331.485 113.745 331.685 113.662 331.894 113.662C332.103 113.662 332.303 113.745 332.451 113.893C332.599 114.041 332.682 114.241 332.682 114.45V123.507C332.682 123.716 332.599 123.917 332.451 124.064C332.303 124.212 332.103 124.295 331.894 124.295Z" fill="#3F3D56" stroke="#3F3D56" stroke-width="2"/>
<path d="M342.923 126.658C342.714 126.658 342.513 126.575 342.366 126.427C342.218 126.279 342.135 126.079 342.135 125.87V116.813C342.135 116.604 342.218 116.404 342.366 116.256C342.513 116.108 342.714 116.025 342.923 116.025C343.132 116.025 343.332 116.108 343.48 116.256C343.628 116.404 343.711 116.604 343.711 116.813V125.87C343.711 126.079 343.628 126.279 343.48 126.427C343.332 126.575 343.132 126.658 342.923 126.658V126.658Z" fill="#3F3D56" stroke="#3F3D56" stroke-width="2"/>
<path d="M439.706 116.169H436.544C436.335 116.169 436.134 116.086 435.987 115.939C435.839 115.791 435.756 115.591 435.756 115.382C435.756 115.173 435.839 114.973 435.987 114.825C436.134 114.677 436.335 114.594 436.544 114.594H439.706C441.354 114.56 442.924 113.881 444.078 112.703C445.232 111.526 445.879 109.942 445.879 108.294C445.879 106.645 445.232 105.062 444.078 103.884C442.924 102.706 441.354 102.027 439.706 101.993H438.159C437.95 101.993 437.749 101.91 437.602 101.762C437.454 101.614 437.371 101.414 437.371 101.205C437.396 98.3104 436.271 95.5239 434.244 93.4569C432.217 91.3898 429.452 90.211 426.557 90.179C424.44 90.1902 422.372 90.8227 420.611 91.998C418.85 93.1734 417.473 94.8397 416.651 96.7904C416.59 96.932 416.489 97.0526 416.361 97.1373C416.232 97.2221 416.081 97.2673 415.927 97.2673H413.408C411.14 97.3128 408.98 98.2455 407.392 99.8653C405.804 101.485 404.915 103.663 404.915 105.931C404.915 108.199 405.804 110.377 407.392 111.996C408.98 113.616 411.14 114.549 413.408 114.594H415.851C416.059 114.594 416.26 114.677 416.408 114.825C416.555 114.973 416.638 115.173 416.638 115.382C416.638 115.591 416.555 115.791 416.408 115.939C416.26 116.086 416.059 116.169 415.851 116.169H413.408C410.722 116.124 408.162 115.025 406.278 113.11C404.395 111.195 403.339 108.617 403.339 105.931C403.339 103.245 404.395 100.667 406.278 98.7514C408.162 96.8362 410.722 95.7376 413.408 95.6921H415.42C416.417 93.5799 417.993 91.7931 419.964 90.5387C421.935 89.2843 424.221 88.6135 426.557 88.6038C429.734 88.6329 432.781 89.8705 435.078 92.065C437.375 94.2594 438.749 97.246 438.923 100.418H439.706C441.772 100.452 443.743 101.296 445.193 102.77C446.642 104.243 447.454 106.227 447.454 108.294C447.454 110.36 446.642 112.344 445.193 113.817C443.743 115.291 441.772 116.135 439.706 116.169V116.169Z" fill="#3F3D56" stroke="#3F3D56" stroke-width="2"/>
<path d="M425.2 114.2C426.179 114.2 426.972 113.407 426.972 112.428C426.972 111.45 426.179 110.656 425.2 110.656C424.221 110.656 423.427 111.45 423.427 112.428C423.427 113.407 424.221 114.2 425.2 114.2Z" fill="#3F3D56" stroke="#3F3D56" stroke-width="2"/>
<path d="M431.108 116.563C432.087 116.563 432.881 115.77 432.881 114.791C432.881 113.812 432.087 113.019 431.108 113.019C430.129 113.019 429.336 113.812 429.336 114.791C429.336 115.77 430.129 116.563 431.108 116.563Z" fill="#3F3D56" stroke="#3F3D56" stroke-width="2"/>
<path d="M421.261 119.32C422.24 119.32 423.033 118.526 423.033 117.548C423.033 116.569 422.24 115.776 421.261 115.776C420.282 115.776 419.489 116.569 419.489 117.548C419.489 118.526 420.282 119.32 421.261 119.32Z" fill="#3F3D56" stroke="#3F3D56" stroke-width="2"/>
<path d="M427.563 123.258C428.542 123.258 429.336 122.464 429.336 121.486C429.336 120.507 428.542 119.714 427.563 119.714C426.584 119.714 425.791 120.507 425.791 121.486C425.791 122.464 426.584 123.258 427.563 123.258Z" fill="#3F3D56" stroke="#3F3D56" stroke-width="2"/>
<path d="M92.1693 56.3126H46.4786C44.8071 56.3126 43.2042 55.6488 42.0223 54.4672C40.8404 53.2856 40.1764 51.683 40.1764 50.0119C40.1764 48.3409 40.8404 46.7383 42.0223 45.5566C43.2042 44.375 44.8071 43.7112 46.4786 43.7112H92.1693C93.8408 43.7112 95.4438 44.375 96.6256 45.5566C97.8075 46.7383 98.4715 48.3409 98.4715 50.0119C98.4715 51.683 97.8075 53.2856 96.6256 54.4672C95.4438 55.6488 93.8408 56.3126 92.1693 56.3126Z" fill="#FFCC33"/>
<path d="M181.188 56.3126H135.497C133.825 56.3126 132.222 55.6488 131.04 54.4672C129.859 53.2856 129.195 51.683 129.195 50.0119C129.195 48.3409 129.859 46.7383 131.04 45.5566C132.222 44.375 133.825 43.7112 135.497 43.7112H181.188C182.859 43.7112 184.462 44.375 185.644 45.5566C186.826 46.7383 187.49 48.3409 187.49 50.0119C187.49 51.683 186.826 53.2856 185.644 54.4672C184.462 55.6488 182.859 56.3126 181.188 56.3126Z" fill="#FFCC33"/>
<path d="M270.206 56.3126H224.515C222.844 56.3126 221.241 55.6488 220.059 54.4672C218.877 53.2856 218.213 51.683 218.213 50.0119C218.213 48.3409 218.877 46.7383 220.059 45.5566C221.241 44.375 222.844 43.7112 224.515 43.7112H270.206C271.877 43.7112 273.48 44.375 274.662 45.5566C275.844 46.7383 276.508 48.3409 276.508 50.0119C276.508 51.683 275.844 53.2856 274.662 54.4672C273.48 55.6488 271.877 56.3126 270.206 56.3126Z" fill="#FFCC33"/>
<path d="M359.224 56.3126H313.533C311.862 56.3126 310.259 55.6488 309.077 54.4672C307.895 53.2856 307.231 51.683 307.231 50.0119C307.231 48.3409 307.895 46.7383 309.077 45.5566C310.259 44.375 311.862 43.7112 313.533 43.7112H359.224C360.895 43.7112 362.498 44.375 363.68 45.5566C364.862 46.7383 365.526 48.3409 365.526 50.0119C365.526 51.683 364.862 53.2856 363.68 54.4672C362.498 55.6488 360.895 56.3126 359.224 56.3126Z" fill="#FFCC33"/>
<path d="M448.242 56.3126H402.551C400.88 56.3126 399.277 55.6488 398.095 54.4672C396.913 53.2856 396.249 51.683 396.249 50.0119C396.249 48.3409 396.913 46.7383 398.095 45.5566C399.277 44.375 400.88 43.7112 402.551 43.7112H448.242C449.914 43.7112 451.517 44.375 452.699 45.5566C453.88 46.7383 454.544 48.3409 454.544 50.0119C454.544 51.683 453.88 53.2856 452.699 54.4672C451.517 55.6488 449.914 56.3126 448.242 56.3126Z" fill="#FFCC33"/>
<path d="M111.864 130.346C111.655 130.346 111.454 130.263 111.307 130.115C111.159 129.968 111.076 129.767 111.076 129.558V69.7017C111.076 69.4928 111.159 69.2925 111.307 69.1448C111.454 68.9971 111.655 68.9141 111.864 68.9141C112.073 68.9141 112.273 68.9971 112.421 69.1448C112.568 69.2925 112.651 69.4928 112.651 69.7017V129.558C112.651 129.767 112.568 129.968 112.421 130.115C112.273 130.263 112.073 130.346 111.864 130.346Z" fill="#E6E6E6"/>
<path d="M200.882 129.558C200.673 129.558 200.472 129.475 200.325 129.328C200.177 129.18 200.094 128.98 200.094 128.771V68.9141C200.094 68.7052 200.177 68.5049 200.325 68.3572C200.472 68.2095 200.673 68.1265 200.882 68.1265C201.091 68.1265 201.291 68.2095 201.439 68.3572C201.587 68.5049 201.67 68.7052 201.67 68.9141V128.771C201.67 128.98 201.587 129.18 201.439 129.328C201.291 129.475 201.091 129.558 200.882 129.558Z" fill="#E6E6E6"/>
<path d="M294.627 129.558C294.418 129.558 294.217 129.475 294.07 129.328C293.922 129.18 293.839 128.98 293.839 128.771V68.9141C293.839 68.7052 293.922 68.5049 294.07 68.3572C294.217 68.2095 294.418 68.1265 294.627 68.1265C294.836 68.1265 295.036 68.2095 295.184 68.3572C295.331 68.5049 295.414 68.7052 295.414 68.9141V128.771C295.414 128.98 295.331 129.18 295.184 129.328C295.036 129.475 294.836 129.558 294.627 129.558Z" fill="#E6E6E6"/>
<path d="M383.645 129.558C383.436 129.558 383.236 129.475 383.088 129.328C382.94 129.18 382.857 128.98 382.857 128.771V68.9141C382.857 68.7052 382.94 68.5049 383.088 68.3572C383.236 68.2095 383.436 68.1265 383.645 68.1265C383.854 68.1265 384.054 68.2095 384.202 68.3572C384.35 68.5049 384.433 68.7052 384.433 68.9141V128.771C384.433 128.98 384.35 129.18 384.202 129.328C384.054 129.475 383.854 129.558 383.645 129.558Z" fill="#E6E6E6"/>
<path d="M711.212 330H411.071C410.862 330 410.662 329.917 410.514 329.769C410.366 329.622 410.283 329.421 410.283 329.212C410.283 329.004 410.366 328.803 410.514 328.656C410.662 328.508 410.862 328.425 411.071 328.425H711.212C711.421 328.425 711.622 328.508 711.769 328.656C711.917 328.803 712 329.004 712 329.212C712 329.421 711.917 329.622 711.769 329.769C711.622 329.917 711.421 330 711.212 330Z" fill="#3F3D56"/>
</g>
<defs>
<clipPath id="clip0">
<rect width="712" height="330" fill="white"/>
</clipPath>
</defs>
</svg>
