<svg width="153" height="30" viewBox="0 0 153 30" fill="none" xmlns="http://www.w3.org/2000/svg">
<g clip-path="url(#clip0)">
<mask id="mask0" mask-type="alpha" maskUnits="userSpaceOnUse" x="0" y="0" width="153" height="31">
<path d="M69.6225 13.1836C69.1165 8.98438 65.9382 6.5696 61.7301 6.5696C56.9272 6.5696 53.2607 9.96094 53.2607 15.9091C53.2607 21.8395 56.8651 25.2486 61.7301 25.2486C66.391 25.2486 69.2053 22.1502 69.6225 18.8033L65.734 18.7855C65.37 20.7298 63.843 21.8484 61.7923 21.8484C59.0312 21.8484 57.158 19.7976 57.158 15.9091C57.158 12.1271 59.0046 9.96982 61.8189 9.96982C63.9229 9.96982 65.4411 11.1861 65.734 13.1836H69.6225ZM76.09 6.81818H72.3081V25H76.09V6.81818ZM79.1196 25H82.9015V11.3636H79.1196V25ZM81.0194 9.60582C82.1469 9.60582 83.0702 8.74467 83.0702 7.68821C83.0702 6.64062 82.1469 5.77947 81.0194 5.77947C79.9008 5.77947 78.9775 6.64062 78.9775 7.68821C78.9775 8.74467 79.9008 9.60582 81.0194 9.60582ZM85.9311 25H89.7131V16.8146C89.7131 15.3054 90.6719 14.3022 91.9325 14.3022C93.1754 14.3022 94.0099 15.1545 94.0099 16.495V25H97.6765V16.6726C97.6765 15.261 98.4844 14.3022 99.8604 14.3022C101.068 14.3022 101.973 15.0568 101.973 16.5749V25H105.746V15.8292C105.746 12.8729 103.989 11.1861 101.45 11.1861C99.4521 11.1861 97.8984 12.207 97.3391 13.7695H97.1971C96.7621 12.1893 95.3683 11.1861 93.495 11.1861C91.6573 11.1861 90.2635 12.1626 89.6953 13.7695H89.5355V11.3636H85.9311V25ZM112.622 25.2575C114.638 25.2575 115.943 24.3786 116.608 23.109H116.715V25H120.302V15.8026C120.302 12.5533 117.55 11.1861 114.513 11.1861C111.246 11.1861 109.098 12.7486 108.574 15.2344L112.072 15.5185C112.329 14.6129 113.137 13.9471 114.496 13.9471C115.783 13.9471 116.52 14.5952 116.52 15.7138V15.767C116.52 16.646 115.588 16.7614 113.217 16.9922C110.518 17.2408 108.095 18.1463 108.095 21.1914C108.095 23.8903 110.021 25.2575 112.622 25.2575ZM113.705 22.6474C112.542 22.6474 111.708 22.1058 111.708 21.0671C111.708 20.0018 112.587 19.478 113.919 19.2915C114.744 19.1761 116.094 18.9808 116.546 18.679V20.1261C116.546 21.5554 115.366 22.6474 113.705 22.6474ZM123.236 30.1136H127.018V22.8161H127.133C127.657 23.9524 128.802 25.2219 131.004 25.2219C134.111 25.2219 136.535 22.7628 136.535 18.1996C136.535 13.5121 134.005 11.1861 131.013 11.1861C128.731 11.1861 127.639 12.5444 127.133 13.6541H126.964V11.3636H123.236V30.1136ZM126.938 18.1818C126.938 15.7493 127.968 14.1957 129.805 14.1957C131.679 14.1957 132.673 15.8203 132.673 18.1818C132.673 20.5611 131.661 22.2124 129.805 22.2124C127.985 22.2124 126.938 20.6143 126.938 18.1818ZM139.056 30.1136H142.838V22.8161H142.953C143.477 23.9524 144.623 25.2219 146.824 25.2219C149.931 25.2219 152.355 22.7628 152.355 18.1996C152.355 13.5121 149.825 11.1861 146.833 11.1861C144.551 11.1861 143.46 12.5444 142.953 13.6541H142.785V11.3636H139.056V30.1136ZM142.758 18.1818C142.758 15.7493 143.788 14.1957 145.626 14.1957C147.499 14.1957 148.493 15.8203 148.493 18.1818C148.493 20.5611 147.481 22.2124 145.626 22.2124C143.806 22.2124 142.758 20.6143 142.758 18.1818Z" fill="black"/>
<path d="M0 19.4049C0 18.9377 0.17096 18.5706 0.512879 18.3037C0.784056 18.0367 1.17314 17.9032 1.68012 17.9032H5.6063C6.06612 17.9032 6.44636 18.0451 6.74701 18.3287C7.04767 18.6123 7.19799 18.9711 7.19799 19.4049C7.19799 19.8276 7.04472 20.1891 6.73817 20.4894C6.43162 20.7898 6.05433 20.9399 5.6063 20.9399H1.68012C1.2203 20.9399 0.825323 20.7898 0.495194 20.4894C0.165065 20.1891 0 19.8276 0 19.4049ZM1.75086 28.4483C1.75086 28.0367 1.91593 27.6752 2.24606 27.3637C2.5526 27.0857 2.93579 26.9466 3.39561 26.9466H37.7408C38.2006 26.9466 38.5897 27.0912 38.9081 27.3804C39.2264 27.6696 39.3856 28.0256 39.3856 28.4483C39.3856 28.871 39.2235 29.2353 38.8992 29.5412C38.575 29.8471 38.1889 30 37.7408 30H3.39561C2.94758 30 2.56145 29.8471 2.23721 29.5412C1.91298 29.2353 1.75086 28.871 1.75086 28.4483ZM5.6063 6.79088C5.6063 6.33482 5.75368 5.98443 6.04844 5.73971C6.36677 5.41713 6.75585 5.25584 7.21568 5.25584C7.66371 5.25584 8.0469 5.41713 8.36523 5.73971L11.0888 8.3426C11.4189 8.63181 11.584 8.98776 11.584 9.41046C11.584 9.8554 11.4337 10.2197 11.133 10.5033C10.8324 10.787 10.4521 10.9288 9.9923 10.9288C9.57964 10.9288 9.20235 10.7842 8.86043 10.495L6.04844 7.87542C5.75368 7.6307 5.6063 7.26919 5.6063 6.79088ZM10.5052 19.4049C10.5052 20.9511 10.8412 22.3359 11.5133 23.5595C11.5722 23.7264 11.7255 23.8098 11.9731 23.8098H15.1211C15.2626 23.8098 15.3481 23.7736 15.3775 23.7013C15.407 23.629 15.3628 23.5317 15.2449 23.4093C14.2427 22.2525 13.7416 20.9177 13.7416 19.4049C13.7416 17.6363 14.4137 16.129 15.7578 14.8832C17.1019 13.6374 18.7053 13.0145 20.5682 13.0145C22.4429 13.0145 24.0434 13.6374 25.3698 14.8832C26.6962 16.129 27.3594 17.6363 27.3594 19.4049C27.3594 20.9288 26.8584 22.2636 25.8562 23.4093C25.7854 23.5206 25.7501 23.5929 25.7501 23.6263C25.7383 23.6819 25.756 23.7264 25.8031 23.7597C25.8503 23.7931 25.9151 23.8098 25.9977 23.8098H29.1987C29.3638 23.8098 29.4935 23.7264 29.5878 23.5595C30.2952 22.3026 30.6489 20.9177 30.6489 19.4049C30.6489 17.703 30.195 16.1207 29.2872 14.658C28.3793 13.1952 27.1502 12.0356 25.5997 11.1791C24.0493 10.3226 22.3721 9.89433 20.5682 9.89433C18.7643 9.89433 17.0871 10.3226 15.5367 11.1791C13.9863 12.0356 12.7601 13.1952 11.8581 14.658C10.9562 16.1207 10.5052 17.703 10.5052 19.4049ZM18.9412 5.28921V1.56841C18.9412 1.14572 19.1003 0.778643 19.4187 0.467186C19.737 0.155729 20.1202 0 20.5682 0C21.0163 0 21.4053 0.155729 21.7355 0.467186C22.0656 0.778643 22.2307 1.14572 22.2307 1.56841V5.28921C22.2307 5.7119 22.0656 6.07898 21.7355 6.39043C21.4053 6.70189 21.0163 6.85762 20.5682 6.85762C20.1202 6.85762 19.737 6.70189 19.4187 6.39043C19.1003 6.07898 18.9412 5.7119 18.9412 5.28921ZM29.5524 9.41046C29.5524 8.97664 29.7057 8.62069 30.0123 8.3426L32.7358 5.73971C33.0542 5.41713 33.4433 5.25584 33.9031 5.25584C34.3747 5.25584 34.7667 5.40323 35.0792 5.698C35.3916 5.99277 35.5478 6.35706 35.5478 6.79088C35.5478 7.24694 35.4063 7.60845 35.1234 7.87542L32.276 10.495C31.9695 10.762 31.5981 10.8954 31.1618 10.8954C30.6902 10.9066 30.3041 10.7731 30.0034 10.495C29.7028 10.2169 29.5524 9.8554 29.5524 9.41046ZM33.9384 19.4049C33.9384 18.9266 34.0917 18.5595 34.3983 18.3037C34.6694 18.0367 35.0408 17.9032 35.5125 17.9032H39.4563C39.9161 17.9032 40.3082 18.0451 40.6324 18.3287C40.9566 18.6123 41.1188 18.9711 41.1188 19.4049C41.1188 19.8276 40.9537 20.1891 40.6236 20.4894C40.2934 20.7898 39.9043 20.9399 39.4563 20.9399H35.5125C35.0762 20.9399 34.7048 20.7898 34.3983 20.4894C34.0917 20.1891 33.9384 19.8276 33.9384 19.4049Z" fill="black"/>
</mask>
<g mask="url(#mask0)">
<rect x="-1" y="-2" width="155" height="33" fill="#ED1F44"/>
</g>
</g>
<defs>
<clipPath id="clip0">
<rect width="153" height="30" fill="white"/>
</clipPath>
</defs>
</svg>
