<svg xmlns="http://www.w3.org/2000/svg" viewBox="0 0 629.17 144.04"><defs><style>.cls-1{fill:#09212d;}.cls-2{fill:#fc3;}.cls-3{fill:#c93;}</style></defs><title>logo_v2</title><g id="text"><path class="cls-1" d="M522.05,183.15a34.12,34.12,0,0,1-5.4,3.28,49,49,0,0,1-9.65,3.64,44.42,44.42,0,0,1-12.62,1.46,50.34,50.34,0,0,1-18.87-3.83,41,41,0,0,1-14.08-9.77,42.73,42.73,0,0,1-8.8-14.2,47.73,47.73,0,0,1-3-17.11,54.05,54.05,0,0,1,3.1-18.69,42.65,42.65,0,0,1,8.86-14.69,40,40,0,0,1,13.77-9.59A45,45,0,0,1,493,100.26a48.13,48.13,0,0,1,15.9,2.42,54.88,54.88,0,0,1,11.29,5.22l-6.92,16.63a50.18,50.18,0,0,0-8.07-4.79,25.83,25.83,0,0,0-11.59-2.49,23.41,23.41,0,0,0-9.77,2.12,25.4,25.4,0,0,0-8.25,6,29.22,29.22,0,0,0-5.65,9,30.07,30.07,0,0,0-2.06,11.23,35.31,35.31,0,0,0,1.88,11.77,26.11,26.11,0,0,0,5.4,9.17,23.92,23.92,0,0,0,8.44,5.88,28.34,28.34,0,0,0,11.1,2.07A29.54,29.54,0,0,0,507,172.23a28,28,0,0,0,7.77-4.86Z" transform="translate(-294.01 -72)"/><path class="cls-1" d="M536.86,94.79h17v95.77h-17Z" transform="translate(-294.01 -72)"/><path class="cls-1" d="M571,118.7a7.64,7.64,0,0,1,3-6.19,9.92,9.92,0,0,1,6.37-2.42,9.48,9.48,0,0,1,6.25,2.42,7.79,7.79,0,0,1,2.85,6.19,7.59,7.59,0,0,1-2.85,6.13,9.57,9.57,0,0,1-6.25,2.37,10,10,0,0,1-6.37-2.37A7.45,7.45,0,0,1,571,118.7Zm.37,18.82h17v53h-17Z" transform="translate(-294.01 -72)"/><path class="cls-1" d="M621.21,137.52l1.34,9.34-.25-.73a24.09,24.09,0,0,1,7.89-8.31,21.05,21.05,0,0,1,11.41-3,22.53,22.53,0,0,1,7.71,1.21,14.85,14.85,0,0,1,5.64,3.58,12.53,12.53,0,0,1,3.16,6.13l-.61.12a28.1,28.1,0,0,1,8.19-8,18.5,18.5,0,0,1,10-3q7.89,0,12.56,4.43a15.48,15.48,0,0,1,4.79,11.47v39.81H676.19V157.79A16,16,0,0,0,675.1,152c-.65-1.5-2.14-2.32-4.49-2.49a9.51,9.51,0,0,0-7,2.86,17.5,17.5,0,0,0-4.25,7.28,30.31,30.31,0,0,0-1.39,9.16v21.73H641V157.79a13.64,13.64,0,0,0-1.27-5.77c-.77-1.5-2.33-2.32-4.67-2.49a9,9,0,0,0-6.74,2.86,18.24,18.24,0,0,0-4.13,7.22,29.3,29.3,0,0,0-1.39,9v22h-17v-53Z" transform="translate(-294.01 -72)"/><path class="cls-1" d="M732.87,192a29.87,29.87,0,0,1-13.41-3,22.13,22.13,0,0,1-9.53-9.16q-3.52-6.19-3.52-15.78a31.59,31.59,0,0,1,3.64-15.54,26.69,26.69,0,0,1,9.59-10.13,24.06,24.06,0,0,1,12.63-3.58q7.88,0,12,2.61a30,30,0,0,1,6.74,5.76l-.73,2.06,1.58-7.76h15.77v53h-17V179l1.34,3.64c-.17,0-.65.46-1.46,1.39a27.3,27.3,0,0,1-3.58,3.28,23.16,23.16,0,0,1-5.83,3.28A21.8,21.8,0,0,1,732.87,192Zm4.86-13.83a15.63,15.63,0,0,0,5.46-.91,12.35,12.35,0,0,0,4.25-2.67,16.27,16.27,0,0,0,3.15-4.43v-13a11.94,11.94,0,0,0-2.91-4.55,13.58,13.58,0,0,0-4.61-2.92,16.58,16.58,0,0,0-6-1,12.79,12.79,0,0,0-6.74,1.88,13.76,13.76,0,0,0-4.91,5.16,15.21,15.21,0,0,0-1.82,7.53,15,15,0,0,0,1.94,7.64,14.39,14.39,0,0,0,5.16,5.34A13.21,13.21,0,0,0,737.73,178.18Z" transform="translate(-294.01 -72)"/><path class="cls-1" d="M818.32,192a25.44,25.44,0,0,1-9.29-1.76,20,20,0,0,1-7.58-5l.48-5V216H785.06V136.3h14.57l2.42,10.32L800.72,143a38.63,38.63,0,0,1,9.22-5.83,28.43,28.43,0,0,1,11.78-2.3A25.41,25.41,0,0,1,835,138.31a24,24,0,0,1,9.16,9.95,33.82,33.82,0,0,1,3.34,15.59,29.37,29.37,0,0,1-3.77,15.3,24.58,24.58,0,0,1-10.31,9.59A33.29,33.29,0,0,1,818.32,192Zm-3.4-13.35a16,16,0,0,0,7.58-1.82,14.51,14.51,0,0,0,5.59-5.16,13.85,13.85,0,0,0,2.12-7.58,15.73,15.73,0,0,0-1.88-7.83,13.68,13.68,0,0,0-5.1-5.22,13.83,13.83,0,0,0-7.1-1.88,18.17,18.17,0,0,0-6,.91,13.94,13.94,0,0,0-4.61,2.67,16.08,16.08,0,0,0-3.46,4.43v13a13.66,13.66,0,0,0,2.8,4.49,12,12,0,0,0,4.43,3A15.12,15.12,0,0,0,814.92,178.66Z" transform="translate(-294.01 -72)"/><path class="cls-1" d="M894.05,192a25.39,25.39,0,0,1-9.28-1.76,19.92,19.92,0,0,1-7.59-5l.49-5V216H860.8V136.3h14.56l2.43,10.32L876.45,143a38.69,38.69,0,0,1,9.23-5.83,28.41,28.41,0,0,1,11.77-2.3,25.36,25.36,0,0,1,13.23,3.46,24,24,0,0,1,9.16,9.95,33.69,33.69,0,0,1,3.34,15.59,29.36,29.36,0,0,1-3.76,15.3,24.61,24.61,0,0,1-10.32,9.59A33.26,33.26,0,0,1,894.05,192Zm-3.4-13.35a16.11,16.11,0,0,0,7.59-1.82,14.41,14.41,0,0,0,5.58-5.16A13.77,13.77,0,0,0,906,164.1a15.73,15.73,0,0,0-1.88-7.83,13.77,13.77,0,0,0-12.2-7.1,18.12,18.12,0,0,0-6,.91,13.84,13.84,0,0,0-4.61,2.67,15.9,15.9,0,0,0-3.46,4.43v13a13.8,13.8,0,0,0,2.79,4.49,12.1,12.1,0,0,0,4.43,3A15.16,15.16,0,0,0,890.65,178.66Z" transform="translate(-294.01 -72)"/></g><g id="sun"><path class="cls-2" d="M432,140.57a65.67,65.67,0,0,1-4,22.49,42.25,42.25,0,0,1-30.47,26.59C391.81,190.94,385.68,192,381,192c-44.74,0-36.67-82.89-81-77.14-8.68,1.12-7.67-2.86,1.34-14.06h0A73.06,73.06,0,0,1,360,72C399.76,72,432,102.7,432,140.57Z" transform="translate(-294.01 -72)"/></g><g id="sundetail"><path class="cls-3" d="M406,106.42c-.25-.44.25-.9.61-.56a46.45,46.45,0,0,1,13.81,28.33c2.8,24.26-12.88,46-35,48.55-.82.09-1.65.16-2.47.2a.67.67,0,0,1-.25-1.28c20-7.72,33-29.79,30.22-54A55.64,55.64,0,0,0,406,106.42Z" transform="translate(-294.01 -72)"/></g></svg>