<svg width="341" height="237" viewBox="0 0 341 237" fill="none" xmlns="http://www.w3.org/2000/svg">
<path d="M340.532 24.9474H0V237H340.532V24.9474Z" fill="#E6E6E6"/>
<path d="M85.2039 65.7987H22.8354V106.338H85.2039V65.7987Z" fill="white"/>
<path d="M162.701 65.7987H100.333V106.338H162.701V65.7987Z" fill="white"/>
<path d="M240.199 65.7987H177.831V106.338H240.199V65.7987Z" fill="white"/>
<path d="M317.696 65.7987H255.328V106.338H317.696V65.7987Z" fill="white"/>
<path d="M85.2039 123.178H22.8354V163.717H85.2039V123.178Z" fill="white"/>
<path d="M162.701 123.178H100.333V163.717H162.701V123.178Z" fill="white"/>
<path d="M240.199 123.178H177.831V163.717H240.199V123.178Z" fill="white"/>
<path d="M317.696 123.178H255.328V163.717H317.696V123.178Z" fill="white"/>
<path d="M85.2039 180.557H22.8354V221.096H85.2039V180.557Z" fill="white"/>
<path d="M162.701 180.557H100.333V221.096H162.701V180.557Z" fill="white"/>
<path d="M240.199 180.557H177.831V221.096H240.199V180.557Z" fill="white"/>
<path d="M317.696 180.557H255.328V221.096H317.696V180.557Z" fill="white"/>
<path d="M89.1866 49.8947C94.3533 49.8947 98.5418 45.7062 98.5418 40.5395C98.5418 35.3727 94.3533 31.1842 89.1866 31.1842C84.0198 31.1842 79.8313 35.3727 79.8313 40.5395C79.8313 45.7062 84.0198 49.8947 89.1866 49.8947Z" fill="white"/>
<path d="M243.861 49.8947C249.028 49.8947 253.216 45.7062 253.216 40.5395C253.216 35.3727 249.028 31.1842 243.861 31.1842C238.694 31.1842 234.506 35.3727 234.506 40.5395C234.506 45.7062 238.694 49.8947 243.861 49.8947Z" fill="white"/>
<path d="M92.929 0H85.4448V43.0342H92.929V0Z" fill="#E6E6E6"/>
<path d="M247.602 0H240.118V43.0342H247.602V0Z" fill="#E6E6E6"/>
<path d="M300.616 86.0684C300.613 89.4553 299.387 92.7273 297.165 95.2832C294.943 97.8391 291.873 99.5071 288.519 99.9809C285.166 100.455 281.754 99.7023 278.91 97.862C276.067 96.0217 273.983 93.2172 273.042 89.9637C272.101 86.7102 272.365 83.2263 273.787 80.1521C275.208 77.078 277.691 74.62 280.78 73.23C283.868 71.8399 287.355 71.6111 290.598 72.5856C293.842 73.5601 296.625 75.6724 298.436 78.5344C299.863 80.7882 300.619 83.4012 300.616 86.0684V86.0684Z" fill="#09212D"/>
<path d="M298.436 78.5345L284.553 92.4152C283.681 91.0643 278.819 84.7863 278.819 84.7863C279.442 84.1566 280.107 83.5698 280.809 83.0298L284.84 88.4046L296.811 76.4343C297.418 77.0814 297.962 77.7846 298.436 78.5345V78.5345Z" fill="white"/>
<path d="M145.621 143.447C145.617 146.834 144.392 150.106 142.17 152.662C139.947 155.218 136.877 156.886 133.524 157.36C130.17 157.834 126.758 157.081 123.915 155.241C121.072 153.401 118.988 150.596 118.046 147.343C117.105 144.089 117.37 140.605 118.791 137.531C120.213 134.457 122.696 131.999 125.784 130.609C128.873 129.219 132.359 128.99 135.603 129.965C138.847 130.939 141.63 133.051 143.441 135.913C144.867 138.167 145.623 140.78 145.621 143.447V143.447Z" fill="#09212D"/>
<path d="M143.441 135.913L129.558 149.794C128.685 148.443 123.824 142.165 123.824 142.165C124.447 141.536 125.112 140.949 125.814 140.409L129.845 145.783L141.816 133.813C142.423 134.46 142.967 135.164 143.441 135.913V135.913Z" fill="white"/>
<path d="M68.1232 143.447C68.12 146.834 66.8947 150.106 64.6723 152.662C62.45 155.218 59.38 156.886 56.0263 157.36C52.6727 157.834 49.2607 157.081 46.4173 155.241C43.574 153.401 41.4902 150.596 40.5489 147.343C39.6077 144.089 39.8721 140.605 41.2936 137.531C42.7152 134.457 45.1984 131.999 48.2869 130.609C51.3754 129.219 54.8619 128.99 58.1056 129.965C61.3493 130.939 64.1324 133.051 65.9436 135.913C67.3698 138.167 68.1258 140.78 68.1232 143.447V143.447Z" fill="#09212D"/>
<path d="M65.9437 135.913L52.0605 149.794C51.1879 148.443 46.3267 142.165 46.3267 142.165C46.9497 141.536 47.6145 140.949 48.3166 140.409L52.3477 145.783L64.318 133.813C64.925 134.46 65.4693 135.164 65.9437 135.913V135.913Z" fill="white"/>
<path d="M145.829 86.4259C145.826 89.8128 144.601 93.0848 142.378 95.6407C140.156 98.1966 137.086 99.8647 133.732 100.338C130.379 100.812 126.967 100.06 124.123 98.2195C121.28 96.3792 119.196 93.5747 118.255 90.3212C117.314 87.0677 117.578 83.5837 119 80.5096C120.421 77.4354 122.904 74.9775 125.993 73.5874C129.081 72.1973 132.568 71.9686 135.812 72.943C139.055 73.9175 141.838 76.0298 143.65 78.8919C145.076 81.1457 145.832 83.7587 145.829 86.4259V86.4259Z" fill="#09212D"/>
<path d="M143.65 78.8918L129.766 92.7725C128.894 91.4216 124.032 85.1436 124.032 85.1436C124.655 84.514 125.32 83.9271 126.022 83.3871L130.053 88.7619L142.024 76.7916C142.631 77.4388 143.175 78.142 143.65 78.8918V78.8918Z" fill="white"/>
<path d="M68.082 86.4259C68.0788 89.8128 66.8534 93.0848 64.6311 95.6407C62.4087 98.1966 59.3387 99.8647 55.9851 100.338C52.6314 100.812 49.2195 100.06 46.3761 98.2195C43.5327 96.3792 41.449 93.5747 40.5077 90.3212C39.5664 87.0677 39.8308 83.5837 41.2524 80.5096C42.6739 77.4354 45.1571 74.9775 48.2456 73.5874C51.3342 72.1973 54.8206 71.9686 58.0643 72.943C61.3081 73.9175 64.0912 76.0298 65.9023 78.8919C67.3286 81.1457 68.0845 83.7587 68.082 86.4259V86.4259Z" fill="#09212D"/>
<path d="M65.9022 78.8918L52.019 92.7725C51.1464 91.4216 46.2852 85.1436 46.2852 85.1436C46.9082 84.514 47.573 83.9271 48.2751 83.3871L52.3062 88.7619L64.2765 76.7916C64.8835 77.4388 65.4278 78.142 65.9022 78.8918V78.8918Z" fill="white"/>
<path d="M223.577 85.346C223.574 88.733 222.348 92.005 220.126 94.5609C217.904 97.1168 214.834 98.7848 211.48 99.2586C208.126 99.7324 204.714 98.98 201.871 97.1397C199.028 95.2994 196.944 92.4948 196.003 89.2413C195.061 85.9878 195.326 82.5039 196.747 79.4297C198.169 76.3556 200.652 73.8976 203.741 72.5076C206.829 71.1175 210.315 70.8887 213.559 71.8632C216.803 72.8377 219.586 74.95 221.397 77.812C222.823 80.0659 223.579 82.6788 223.577 85.346V85.346Z" fill="#09212D"/>
<path d="M221.397 77.812L207.514 91.6926C206.641 90.3418 201.78 84.0638 201.78 84.0638C202.403 83.4341 203.068 82.8473 203.77 82.3072L207.801 87.682L219.771 75.7118C220.378 76.3589 220.923 77.0621 221.397 77.812V77.812Z" fill="white"/>
<path d="M223.577 143.657C223.574 147.044 222.348 150.316 220.126 152.871C217.904 155.427 214.834 157.095 211.48 157.569C208.126 158.043 204.714 157.291 201.871 155.45C199.028 153.61 196.944 150.805 196.003 147.552C195.061 144.298 195.326 140.814 196.747 137.74C198.169 134.666 200.652 132.208 203.741 130.818C206.829 129.428 210.315 129.199 213.559 130.174C216.803 131.148 219.586 133.261 221.397 136.123C222.823 138.376 223.579 140.989 223.577 143.657V143.657Z" fill="#09212D"/>
<path d="M221.397 136.123L207.514 150.003C206.641 148.652 201.78 142.374 201.78 142.374C202.403 141.745 203.068 141.158 203.77 140.618L207.801 145.993L219.771 134.022C220.378 134.67 220.923 135.373 221.397 136.123V136.123Z" fill="white"/>
<path d="M300.244 144.736C300.241 148.123 299.016 151.395 296.793 153.951C294.571 156.507 291.501 158.175 288.147 158.649C284.794 159.123 281.382 158.37 278.538 156.53C275.695 154.69 273.611 151.885 272.67 148.632C271.729 145.378 271.993 141.894 273.415 138.82C274.836 135.746 277.319 133.288 280.408 131.898C283.497 130.508 286.983 130.279 290.227 131.254C293.47 132.228 296.254 134.34 298.065 137.202C299.491 139.456 300.247 142.069 300.244 144.736V144.736Z" fill="#09212D"/>
<path d="M298.065 137.202L284.181 151.083C283.309 149.732 278.448 143.454 278.448 143.454C279.071 142.825 279.735 142.238 280.437 141.698L284.469 147.072L296.439 135.102C297.046 135.749 297.59 136.453 298.065 137.202V137.202Z" fill="white"/>
</svg>
