<svg width="311" height="252" viewBox="0 0 311 252" fill="none" xmlns="http://www.w3.org/2000/svg">
<path d="M281.592 130.592V131.313C281.576 133.124 281.524 134.926 281.437 136.719C279.875 167.419 266.631 196.36 244.419 217.609C222.207 238.859 192.709 250.809 161.97 251.01C131.231 251.211 101.579 239.648 79.0912 218.691C56.6031 197.733 42.9818 168.969 41.0187 138.292C40.8549 135.745 40.773 133.178 40.773 130.592C40.7298 105.654 48.4697 81.3227 62.9137 60.9924C64.0686 59.3542 65.2699 57.746 66.5177 56.1678C67.3778 55.0702 68.2624 53.9972 69.1553 52.9323C89.4815 28.8524 118.436 13.6984 149.807 10.7214C181.178 7.74451 212.466 17.1819 236.959 37.0088C238.409 38.1801 239.834 39.3924 241.226 40.6293C242.34 41.6204 243.435 42.6334 244.511 43.6682C265.698 63.9341 278.739 91.2509 281.175 120.468C281.453 123.81 281.592 127.185 281.592 130.592Z" fill="#63BDFF"/>
<path d="M66.5177 56.1678C66.5767 56.1926 66.6319 56.2257 66.6815 56.2661C67.3286 56.7985 66.5177 57.8224 66.616 58.6661C66.7307 59.7473 68.1723 59.9849 69.2617 60.0914C70.3512 60.206 71.7273 61.0825 71.2113 62.049C68.4754 62.991 65.7068 62.0654 62.9136 60.9924C48.4697 81.3227 40.7298 105.654 40.773 130.592C40.773 133.181 40.8549 135.747 41.0187 138.292C41.2477 138.459 41.4985 138.594 41.7641 138.693C42.5832 139.005 43.5334 138.947 44.287 139.39C44.8849 139.742 45.2863 140.364 45.8843 140.692C47.5962 141.626 49.9716 139.832 51.5689 140.946C51.9818 141.322 52.3728 141.721 52.7402 142.142C54.2146 143.42 56.6392 142.56 58.343 143.518C59.4406 144.132 60.0058 145.361 60.5955 146.475C62.0618 149.26 64.4372 151.996 67.5744 152.217C68.5638 152.172 69.5553 152.204 70.5396 152.315C71.5061 152.536 72.4563 153.38 72.3007 154.355C72.0304 156.034 72.8577 157.869 72.6365 159.548C72.2351 162.62 67.8856 163.963 67.517 167.035C67.5158 167.711 67.4775 168.386 67.4024 169.058C67.2058 169.861 66.5996 170.516 66.3867 171.319C65.9771 172.834 67.0665 174.349 68.2542 175.365C69.4501 176.389 70.8754 177.274 71.5307 178.699C72.2188 180.214 71.8829 181.975 72.1041 183.622C72.5955 187.218 75.7 189.88 78.8945 191.6C79.9182 192.028 80.8273 192.69 81.5485 193.533C82.3676 194.721 82.2856 196.285 82.5641 197.702C83.2358 201.167 86.1518 204.026 86.2338 207.556C86.2911 210.071 84.8986 212.348 84.0631 214.715C83.2037 217.197 82.9481 219.848 83.3177 222.448C87.9882 226.409 92.9526 230.01 98.1683 233.219C98.452 232.8 98.6599 232.334 98.7826 231.843C98.8817 231.3 98.8133 230.74 98.5866 230.236C98.3598 229.733 97.9854 229.311 97.513 229.025C98.3933 228.693 99.1942 228.179 99.8638 227.518C100.193 227.18 100.41 226.748 100.486 226.283C100.563 225.817 100.494 225.339 100.29 224.913C101.731 225.094 103.443 225.184 104.394 224.078C105.155 223.193 105.106 221.866 104.803 220.744C104.5 219.614 103.992 218.524 103.984 217.353C107.324 217.515 110.672 217.403 113.994 217.017C113.513 215.397 112.42 214.028 110.946 213.2C112.454 212.946 113.822 211.144 114.297 209.694C114.707 208.215 114.73 206.655 114.362 205.164C114.248 204.781 114.231 204.376 114.313 203.985C114.555 203.465 114.981 203.054 115.509 202.83C117.999 201.397 120.489 199.966 122.979 198.538C123.424 198.314 123.828 198.018 124.175 197.661C124.953 196.736 124.839 195.352 124.437 194.213C124.036 193.074 123.397 192.001 123.241 190.805C122.783 187.226 126.616 184.654 127.91 181.279C128.35 179.932 128.588 178.527 128.615 177.11C128.721 175.586 128.729 173.825 127.566 172.85C126.444 171.908 124.699 172.121 123.528 171.245C122.455 170.442 122.086 168.894 120.915 168.247C119.85 167.657 118.523 168.034 117.336 167.756C115.255 167.272 113.944 164.872 111.815 164.651C110.619 164.52 109.259 165.11 108.276 164.414C107.408 163.791 107.375 162.554 107.211 161.506C106.92 159.873 106.137 158.368 104.965 157.193C103.794 156.019 102.291 155.231 100.658 154.936C99.4215 154.74 98.0782 154.814 97.0215 154.134C95.9567 153.446 95.4734 152.16 94.6297 151.201C93.2864 149.67 91.1566 149.121 89.1662 148.654C86.4631 148.023 83.7628 147.39 81.0652 146.754C79.6317 146.41 77.7805 146.229 77.0024 147.491C76.7721 147.97 76.6121 148.481 76.5273 149.006C76.2347 149.951 75.6512 150.78 74.8599 151.374C74.0686 151.969 73.1099 152.298 72.1205 152.315C71.4431 151.159 70.3458 150.308 69.057 149.94C68.2148 149.799 67.383 149.602 66.5669 149.35C66.1407 149.141 65.7615 148.848 65.4527 148.487C65.1439 148.127 64.9118 147.707 64.7707 147.254C64.6296 146.801 64.5825 146.324 64.6322 145.852C64.6819 145.38 64.8274 144.923 65.0597 144.509C65.5242 143.678 65.7028 142.717 65.5682 141.774C65.4335 140.832 64.993 139.959 64.3143 139.291C62.9382 138.055 60.9477 137.751 59.0965 137.874C58.6133 136.818 59.4242 135.63 60.2925 134.86C61.1689 134.098 62.2256 133.345 62.414 132.198C62.717 130.396 60.4153 129.028 58.6706 129.56C56.9259 130.101 55.8119 131.797 55.0747 133.468C54.7172 134.454 54.2296 135.387 53.6249 136.244C53.315 136.668 52.894 136.998 52.4082 137.198C51.9225 137.397 51.3911 137.458 50.8727 137.375C49.431 137.006 48.8822 135.294 48.5628 133.852C48.0509 131.926 47.792 129.94 47.7928 127.947C47.8053 125.933 48.605 124.005 50.0208 122.573C52.4044 120.378 56.074 120.591 59.2931 120.943C58.9483 120.483 58.7831 119.914 58.8283 119.341C58.8735 118.768 59.1262 118.231 59.5389 117.831C59.9697 117.448 60.4873 117.177 61.0469 117.04C61.6064 116.902 62.191 116.904 62.7498 117.044C63.7203 117.245 64.5947 117.768 65.2317 118.527C66.1491 119.641 66.4112 121.156 67.0993 122.418C67.7956 123.687 69.3519 124.769 70.6215 124.089C71.7273 123.499 71.8993 121.975 71.629 120.755C71.3505 119.543 70.7689 118.355 70.8672 117.11C71.0556 114.743 73.5211 113.309 75.6918 112.334C77.8624 111.36 80.3443 110.041 80.6884 107.682C80.7043 107.223 80.7927 106.77 80.9505 106.339C81.1907 105.954 81.5265 105.638 81.9252 105.421C88.257 101.235 94.7034 96.9924 101.944 94.7071C102.321 94.5842 102.362 94.7153 102.747 94.6252C103.288 94.3139 102.927 93.4539 102.411 93.1098C101.895 92.7658 101.207 92.4955 101.076 91.8894C100.986 91.447 101.248 91.0047 101.314 90.5542C101.331 90.2821 101.281 90.0099 101.168 89.7616C101.056 89.5132 100.884 89.2963 100.668 89.1297C100.452 88.9632 100.199 88.8521 99.9302 88.8063C99.6614 88.7604 99.3855 88.7812 99.1266 88.8668C98.5451 88.0969 99.6918 87.204 100.626 86.9419C103.421 86.176 106.291 85.7092 109.185 85.5494C109.519 85.4943 109.862 85.5519 110.16 85.7133C110.373 85.9186 110.499 86.1977 110.513 86.4931C110.527 86.7886 110.427 87.0781 110.234 87.3023C109.84 87.74 109.403 88.1379 108.931 88.49C108.461 88.9465 108.126 89.5232 107.961 90.1573C107.797 90.7914 107.809 91.4585 107.998 92.0859C109.513 92.8559 111.151 93.6505 112.83 93.3801C114.501 93.1098 115.984 91.2259 115.198 89.7269C114.469 88.3262 112.265 88.0067 111.888 86.475C111.446 84.6811 113.985 83.0839 113.412 81.331C113.166 80.561 112.396 80.1023 111.806 79.5535C111.112 78.8702 110.64 77.9936 110.452 77.038C110.263 76.0824 110.367 75.0922 110.75 74.1965C109.791 74.364 108.806 74.2998 107.877 74.0091C106.948 73.7184 106.102 73.2097 105.409 72.5255C104.131 71.2395 103.116 69.1999 101.297 69.2654C99.6345 69.3146 98.201 71.2559 96.6447 70.6661C96.2597 70.5187 95.8583 70.2238 95.4897 70.3958C95.3681 70.474 95.2659 70.5787 95.1907 70.7022C95.1155 70.8256 95.0693 70.9645 95.0556 71.1084C94.6625 73.0006 95.3423 75.1549 94.3102 76.7931C93.188 78.5706 90.5914 78.8163 89.2317 80.4218C88.4945 81.29 88.2078 82.4614 87.528 83.3788C86.8481 84.2962 85.4146 84.8859 84.5955 84.0832C84.9967 83.2609 85.1065 82.3267 84.9071 81.4337C84.7077 80.5408 84.2108 79.7421 83.4979 79.1685C82.7435 78.6733 81.9286 78.2769 81.0733 77.989C80.1179 77.5858 79.2089 77.0805 78.3621 76.4819C77.9401 76.2248 77.5971 75.8563 77.371 75.417C77.192 74.8646 77.2152 74.2665 77.4365 73.7296C77.8512 72.5466 78.5805 71.499 79.5461 70.6995C80.5116 69.8999 81.6768 69.3787 82.9164 69.1918C83.9976 69.0443 85.259 69.0935 85.9798 68.2662C86.3566 67.832 86.5532 67.1685 87.1102 66.9966C87.4611 66.9233 87.8263 66.9664 88.1505 67.1194C89.502 67.5945 90.8454 68.0696 92.1969 68.5447C92.6476 68.7514 93.1454 68.8334 93.6386 68.7822C93.883 68.7507 94.1062 68.6273 94.2629 68.4371C94.4196 68.247 94.498 68.0043 94.4822 67.7583C94.3512 67.0867 93.3191 66.7672 93.4174 66.0873C93.4651 65.8652 93.5829 65.6642 93.7532 65.5139C95.2142 63.96 97.0004 62.7482 98.9843 61.9651C100.968 61.1821 103.101 60.8471 105.229 60.9842C105.737 61.8279 104.934 62.8191 104.254 63.5317C103.583 64.2525 103.042 65.5303 103.861 66.0791C104.192 66.2524 104.561 66.3371 104.934 66.3249C105.93 66.4585 106.898 66.7517 107.801 67.1931C109.202 67.7993 110.578 68.4709 111.921 69.1918C111.723 68.3135 111.757 67.399 112.019 66.5378C112.167 66.1151 112.468 65.7626 112.861 65.5491C113.255 65.3356 113.714 65.2763 114.149 65.3829C114.952 65.6941 115.361 66.759 116.222 66.8573C117.36 66.9883 117.811 65.301 117.336 64.2525C116.86 63.204 115.91 62.3358 115.837 61.1808C115.779 60.4109 116.074 59.4525 115.46 58.9856C115.241 58.8409 114.991 58.751 114.731 58.7235C109.587 57.7815 104.44 56.8368 99.2905 55.8894C98.373 55.7173 97.0543 55.8484 97.0133 56.774C96.9888 57.2982 97.4556 57.8143 97.2509 58.2894C97.0297 58.7972 96.3089 58.7563 95.7847 58.9365C95.3908 59.1151 95.0658 59.4172 94.8589 59.7971C94.652 60.1769 94.5744 60.6137 94.6379 61.0416C94.7779 61.8933 95.1083 62.7025 95.6044 63.4088C94.5969 62.9911 93.0816 62.9173 92.074 62.4914C91.9275 61.3248 91.6301 60.1822 91.1894 59.0921C91.1642 58.9186 91.1013 58.7528 91.0051 58.6062C90.9089 58.4596 90.7818 58.3359 90.6327 58.2438C90.4835 58.1517 90.316 58.0933 90.1419 58.0729C89.9678 58.0525 89.7913 58.0704 89.6249 58.1255C88.2979 58.3303 86.971 58.5269 85.644 58.7317C85.3108 58.7475 84.9917 58.8711 84.7348 59.0839C84.2188 59.6327 84.7266 60.5092 84.7102 61.2627C84.6622 61.6841 84.4842 62.0801 84.2009 62.3957C83.9176 62.7113 83.5431 62.9308 83.1293 63.0238C82.2956 63.1931 81.4354 63.1819 80.6064 62.9911C78.7471 62.7044 76.8959 62.4177 75.0365 62.131C76.6777 61.608 78.1374 60.6311 79.2467 59.3133C79.9839 58.445 80.3771 56.8231 79.3122 56.4136C78.9978 56.3272 78.6696 56.3022 78.3457 56.3399C75.8228 56.3563 73.8324 54.2511 71.4733 53.3583C70.7316 53.0816 69.9469 52.9374 69.1552 52.9324L66.5177 56.1678Z" fill="#0B5F36"/>
<path d="M281.437 136.72C281.148 137.107 280.768 137.418 280.331 137.625C279.894 137.832 279.413 137.929 278.93 137.907C276.366 137.686 275.285 133.992 272.746 133.574C272.521 133.517 272.283 133.54 272.074 133.64C271.697 133.844 271.632 134.352 271.607 134.778C271.501 136.892 271.411 139.087 272.238 141.036C273.442 143.887 276.563 146.279 275.908 149.301C272.385 147.671 270.551 143.715 269.723 139.922C268.888 136.13 268.757 132.149 267.266 128.561C266.127 130.011 263.752 128.815 262.72 127.292C261.737 125.85 261.131 124.179 260.181 122.713C259.23 121.255 257.772 119.944 256.036 119.862C254.209 119.78 252.62 121.034 251.228 122.221C250.016 123.116 248.999 124.247 248.238 125.547C247.263 127.513 247.517 129.823 247.468 132.01C247.419 134.369 246.919 136.867 245.305 138.603C243.692 140.332 240.718 140.938 238.941 139.373C238.082 138.478 237.469 137.374 237.163 136.171C235.231 130.539 233.623 124.801 232.347 118.986C232.052 120.313 230.881 122.025 229.767 121.247C229.518 121.035 229.317 120.772 229.177 120.477C227.097 116.963 223.255 114.849 219.364 113.58C215.482 112.318 211.394 111.728 207.553 110.336C205.398 109.554 203.34 108.529 201.417 107.281C200.929 108 200.644 108.838 200.592 109.706C200.54 110.573 200.723 111.439 201.122 112.212C201.554 112.967 202.224 113.559 203.026 113.896C203.829 114.232 204.721 114.294 205.562 114.071C206.414 113.793 207.135 113.203 207.978 112.908C208.822 112.621 209.961 112.761 210.329 113.58C210.69 114.358 210.149 115.3 210.419 116.119C210.821 117.356 212.697 117.454 213.352 118.584C213.544 119.032 213.589 119.53 213.478 120.004C213.368 120.479 213.108 120.905 212.738 121.222C211.984 121.837 211.152 122.349 210.264 122.746C207.512 124.277 205.554 126.89 203.146 128.922C200.738 130.961 197.338 132.444 194.471 131.141C195.151 127.677 191.031 125.137 190.269 121.689C190.015 120.55 190.146 119.346 189.794 118.24C189.278 116.635 187.853 115.537 186.69 114.325C185.277 112.837 184.175 111.081 183.451 109.161C182.727 107.241 182.393 105.195 182.471 103.144C182.537 101.719 182.799 100.269 182.471 98.8765C182.152 97.4922 180.997 96.1489 179.572 96.2062C176.32 96.3537 172.216 96.5994 170.512 93.8226C169.898 92.8315 169.636 91.3816 170.52 90.6199C171.143 90.0875 172.06 90.1366 172.871 90.2185C175.32 90.4561 177.761 90.7018 180.211 90.9394C181.922 91.1032 183.774 91.2424 185.248 90.3496C186.722 89.4568 187.361 87.0731 185.993 86.0165C185.002 85.2465 183.217 85.2875 182.922 84.067C182.684 83.0431 183.815 81.8882 183.2 81.0281C182.766 80.4219 181.783 80.5858 181.185 81.0445C180.663 81.5862 180.096 82.0822 179.49 82.5271C178.318 83.1332 176.926 82.5516 175.664 82.1585C174.403 81.7653 172.716 81.7325 172.11 82.9038C171.421 84.2062 172.707 85.9264 172.036 87.237C171.135 88.9653 168.104 87.9823 166.843 89.4731C165.401 91.1769 167.826 93.7325 167.342 95.9114C166.72 96.22 166.028 96.3618 165.335 96.3231C164.641 96.2843 163.97 96.0662 163.386 95.6902C162.813 95.3004 162.356 94.7623 162.065 94.1333C161.773 93.5044 161.658 92.8082 161.731 92.1189C161.846 91.1359 162.362 90.1284 162.018 89.2028C161.647 88.488 161.035 87.9279 160.29 87.6219C157.914 86.3032 155.539 84.9899 153.163 83.682C152.5 84.9107 153.335 86.426 154.384 87.3516C155.424 88.269 156.735 88.9653 157.423 90.1776C157.858 91.0178 157.957 91.9926 157.698 92.9029C157.439 93.8133 156.843 94.5905 156.03 95.0759C155.927 95.1466 155.81 95.1942 155.687 95.2154C155.564 95.2367 155.438 95.2309 155.318 95.1987C155.204 95.1321 155.105 95.0434 155.026 94.9379C154.947 94.8324 154.891 94.7122 154.859 94.5844C153.606 91.3653 151.714 88.1953 148.699 86.5161C145.677 84.8288 141.344 85.181 139.361 88.0069C138.894 88.6786 138.575 89.4486 138.165 90.1612C135.995 93.9373 131.326 95.723 126.968 95.6083C126.542 95.6356 126.117 95.5358 125.748 95.3216C125.043 94.8383 125.076 93.8062 125.182 92.9544C125.338 91.7503 125.485 90.5544 125.641 89.3503C125.645 88.6151 125.929 87.909 126.436 87.3762C127.247 86.7373 128.41 87.1387 129.442 87.1223C130.221 87.0876 130.97 86.8132 131.587 86.3368C132.204 85.8603 132.66 85.2049 132.89 84.4602C133.098 83.7086 133.096 82.9146 132.885 82.1639C132.675 81.4133 132.263 80.7344 131.694 80.2008C131.227 79.7585 130.597 79.2015 130.843 78.6035C130.942 78.4388 131.077 78.2978 131.237 78.1903C131.397 78.0828 131.578 78.0114 131.768 77.981C133.611 77.4486 135.569 77.3093 137.379 76.6704C139.197 76.0397 140.959 74.7455 141.393 72.8697C141.524 72.2963 141.581 71.6001 142.097 71.3134C142.358 71.2089 142.635 71.1533 142.916 71.1496C143.901 71.0084 144.798 70.5041 145.43 69.7357C146.062 68.9673 146.383 67.9903 146.332 66.9967C147.2 66.3905 148.421 66.8411 149.264 67.4882C150.1 68.1353 150.845 68.9871 151.869 69.2656C153.778 69.7899 155.621 68.0943 157.603 68.0861C158.438 68.0861 159.298 68.381 160.077 68.0943C160.871 67.8076 161.346 67.0213 161.952 66.4397C162.567 65.8499 163.632 65.4977 164.197 66.1284C164.033 64.9407 163.877 63.7612 163.714 62.5817C164.679 62.8247 165.684 62.8583 166.664 62.6803C167.643 62.5023 168.572 62.1168 169.39 61.5496C167.326 60.8533 165.27 60.1571 163.206 59.4609C162.989 59.4074 162.789 59.3004 162.624 59.1496C162.174 58.6663 162.624 57.9127 162.985 57.3639C163.861 56.0452 164.008 53.8745 162.567 53.2192C161.584 52.7687 160.462 53.3093 159.52 53.8335C158.013 54.669 156.505 55.5127 154.998 56.3482C154.859 57.2083 155.907 57.6998 156.555 58.2731C156.949 58.6229 157.228 59.0839 157.355 59.5954C157.483 60.1069 157.452 60.645 157.268 61.1388C157.083 61.6326 156.754 62.059 156.322 62.3618C155.891 62.6647 155.378 62.8299 154.851 62.8356C155.148 63.2231 155.354 63.6722 155.455 64.1499C155.555 64.6275 155.548 65.1217 155.432 65.596C154.425 65.6697 153.409 65.7434 152.393 65.8172C152.225 65.8508 152.051 65.8507 151.882 65.817C151.714 65.7833 151.553 65.7165 151.41 65.6206C151.083 65.3339 151.132 64.826 151.05 64.4001C150.915 63.891 150.631 63.434 150.234 63.088C149.836 62.742 149.345 62.5228 148.822 62.4588C147.779 62.3414 146.722 62.439 145.718 62.7455C145.281 62.8993 144.803 62.8877 144.374 62.7127C144.131 62.5518 143.947 62.316 143.85 62.0411C143.672 61.4794 143.641 60.8812 143.762 60.3044C143.882 59.7275 144.15 59.1915 144.538 58.7482C145.325 57.8747 146.191 57.0767 147.126 56.3646C149.246 54.5091 150.804 52.0972 151.623 49.4022C153.294 48.6977 155.023 47.7476 156.702 47.0431C158.052 46.4175 159.467 45.9423 160.92 45.626C162.289 45.4171 163.675 45.3512 165.057 45.4295C166.941 45.4622 168.833 45.495 170.717 45.5359C172.399 45.4653 174.079 45.7069 175.673 46.2486C177.221 46.8875 178.589 48.2718 178.695 49.9428C178.727 50.1332 178.71 50.3287 178.646 50.5108C178.581 50.6928 178.471 50.8554 178.327 50.983C178.109 51.1033 177.862 51.1601 177.614 51.1469C176.049 51.196 175.386 51.5892 173.821 51.6465C174.813 52.7032 175.927 53.8172 177.368 54.0056C179.907 54.3332 181.734 51.7039 182.905 49.4185C182.947 50.0002 183.215 50.5425 183.651 50.9297C184.087 51.3169 184.657 51.5183 185.24 51.4909C185.867 51.383 186.466 51.1489 187.001 50.8028C192.039 48.0494 197.683 46.5914 203.424 46.5598C203.368 46.1252 203.475 45.6851 203.725 45.3249C203.974 44.9647 204.349 44.71 204.776 44.6104C205.947 44.381 206.996 45.3885 207.561 46.437C208.118 47.4854 208.47 48.6977 209.371 49.4841C210.264 50.2704 211.992 50.2295 212.344 49.0991C212.688 48.0097 211.55 47.0759 210.608 46.4288C209.658 45.7899 208.667 44.6022 209.305 43.652C214.122 42.5789 218.979 41.5141 223.918 41.3011C224.758 41.3265 225.594 41.1816 226.376 40.8752C226.763 40.7112 227.085 40.424 227.292 40.0582C227.5 39.6924 227.581 39.2684 227.522 38.852C226.445 39.1035 225.316 39.0291 224.281 38.6383C223.246 38.2474 222.35 37.5577 221.707 36.6567C226.777 36.239 232.085 35.8704 236.959 37.0089L241.226 40.6294C240.415 41.4731 239.334 42.2677 239.924 43.1113C240.118 43.3051 240.354 43.4522 240.614 43.5416C240.874 43.631 241.15 43.6603 241.423 43.6274C242.455 43.6438 243.487 43.6683 244.511 43.6683C265.698 63.9342 278.738 91.2511 281.174 120.468C279.454 120.403 277.873 122.582 278.095 124.482C278.357 126.686 279.946 128.455 281.084 130.355C281.273 130.664 281.442 130.984 281.592 131.313L281.437 136.72Z" fill="#0B5F36"/>
<path d="M149.126 36.2753C149.715 36.2753 150.193 35.7975 150.193 35.208C150.193 34.6186 149.715 34.1408 149.126 34.1408C148.536 34.1408 148.058 34.6186 148.058 35.208C148.058 35.7975 148.536 36.2753 149.126 36.2753Z" fill="#F2F2F2"/>
<path d="M7.54023 82.5858C8.55422 82.5858 9.37623 81.7638 9.37623 80.7498C9.37623 79.7358 8.55422 78.9138 7.54023 78.9138C6.52623 78.9138 5.70422 79.7358 5.70422 80.7498C5.70422 81.7638 6.52623 82.5858 7.54023 82.5858Z" fill="#CCCCCC"/>
<path d="M3.62698 156.237C5.63011 156.237 7.25397 154.613 7.25397 152.61C7.25397 150.607 5.63011 148.983 3.62698 148.983C1.62386 148.983 0 150.607 0 152.61C0 154.613 1.62386 156.237 3.62698 156.237Z" fill="#CCCCCC"/>
<path d="M221.341 44.0287C222.676 44.0287 223.759 42.9464 223.759 41.6114C223.759 40.2764 222.676 39.1941 221.341 39.1941C220.006 39.1941 218.924 40.2764 218.924 41.6114C218.924 42.9464 220.006 44.0287 221.341 44.0287Z" fill="#CCCCCC"/>
<path d="M307.075 145.862C309.243 145.862 311 144.105 311 141.937C311 139.77 309.243 138.013 307.075 138.013C304.908 138.013 303.15 139.77 303.15 141.937C303.15 144.105 304.908 145.862 307.075 145.862Z" fill="#CCCCCC"/>
<path d="M276.386 80.9368C277.316 80.9368 278.07 80.1829 278.07 79.2529C278.07 78.3229 277.316 77.569 276.386 77.569C275.456 77.569 274.702 78.3229 274.702 79.2529C274.702 80.1829 275.456 80.9368 276.386 80.9368Z" fill="#CCCCCC"/>
<path d="M71.9295 60.2467C73.3804 60.2467 74.5565 59.0706 74.5565 57.6198C74.5565 56.169 73.3804 54.9929 71.9295 54.9929C70.4787 54.9929 69.3026 56.169 69.3026 57.6198C69.3026 59.0706 70.4787 60.2467 71.9295 60.2467Z" fill="#CCCCCC"/>
<path d="M270.492 135.663C271.422 135.663 272.176 134.909 272.176 133.979C272.176 133.049 271.422 132.295 270.492 132.295C269.562 132.295 268.808 133.049 268.808 133.979C268.808 134.909 269.562 135.663 270.492 135.663Z" fill="#CCCCCC"/>
<path d="M12.1648 205.932C13.3223 205.932 14.2606 204.994 14.2606 203.837C14.2606 202.679 13.3223 201.741 12.1648 201.741C11.0073 201.741 10.069 202.679 10.069 203.837C10.069 204.994 11.0073 205.932 12.1648 205.932Z" fill="#CCCCCC"/>
<path d="M54.4982 235.277C55.7517 235.277 56.7678 234.261 56.7678 233.007C56.7678 231.754 55.7517 230.738 54.4982 230.738C53.2447 230.738 52.2285 231.754 52.2285 233.007C52.2285 234.261 53.2447 235.277 54.4982 235.277Z" fill="#CCCCCC"/>
<path d="M120.478 4.47895H115.999V0H113.596V4.47895H109.115V6.8839H113.596V11.3629H115.999V6.8839H120.478V4.47895Z" fill="#CCCCCC"/>
<path d="M224.375 246.832H221.561V244.02H220.053V246.832H217.241V248.341H220.053V251.153H221.561V248.341H224.375V246.832Z" fill="#CCCCCC"/>
<path d="M289.287 232.436H287.185V230.334H286.056V232.436H283.953V233.565H286.056V235.668H287.185V233.565H289.287V232.436Z" fill="#CCCCCC"/>
<path opacity="0.1" d="M148.059 81.1055C152.381 81.1055 155.885 77.6015 155.885 73.2792C155.885 68.9568 152.381 65.4528 148.059 65.4528C143.736 65.4528 140.232 68.9568 140.232 73.2792C140.232 77.6015 143.736 81.1055 148.059 81.1055Z" fill="black"/>
<path opacity="0.1" d="M244.876 109.154C249.198 109.154 252.702 105.651 252.702 101.328C252.702 97.0058 249.198 93.5018 244.876 93.5018C240.553 93.5018 237.049 97.0058 237.049 101.328C237.049 105.651 240.553 109.154 244.876 109.154Z" fill="black"/>
<path opacity="0.1" d="M91.851 193.52C96.1734 193.52 99.6773 190.016 99.6773 185.694C99.6773 181.371 96.1734 177.867 91.851 177.867C87.5286 177.867 84.0247 181.371 84.0247 185.694C84.0247 190.016 87.5286 193.52 91.851 193.52Z" fill="black"/>
<path opacity="0.1" d="M58.6408 110.773C62.9632 110.773 66.4671 107.269 66.4671 102.946C66.4671 98.624 62.9632 95.12 58.6408 95.12C54.3184 95.12 50.8145 98.624 50.8145 102.946C50.8145 107.269 54.3184 110.773 58.6408 110.773Z" fill="black"/>
<path d="M244.875 77.4934C250.573 77.4934 255.192 72.8746 255.192 67.1769C255.192 61.4792 250.573 56.8604 244.875 56.8604C239.178 56.8604 234.559 61.4792 234.559 67.1769C234.559 72.8746 239.178 77.4934 244.875 77.4934Z" fill="white"/>
<path d="M244.876 52.2358C241.007 52.2358 237.297 53.7725 234.562 56.5078C231.827 59.243 230.29 62.9529 230.29 66.8212C230.29 74.8765 244.876 101.328 244.876 101.328C244.876 101.328 259.461 74.8765 259.461 66.8212C259.461 62.9529 257.924 59.243 255.189 56.5078C252.454 53.7725 248.744 52.2358 244.876 52.2358ZM244.876 73.9361C243.539 73.9361 242.232 73.5396 241.12 72.7969C240.009 72.0542 239.143 70.9986 238.631 69.7635C238.119 68.5285 237.986 67.1694 238.246 65.8583C238.507 64.5472 239.151 63.3428 240.096 62.3975C241.041 61.4522 242.246 60.8085 243.557 60.5477C244.868 60.2869 246.227 60.4207 247.462 60.9323C248.697 61.4439 249.753 62.3102 250.496 63.4218C251.238 64.5333 251.635 65.8401 251.635 67.1769C251.635 68.0646 251.46 68.9435 251.12 69.7636C250.781 70.5836 250.283 71.3287 249.655 71.9564C249.027 72.584 248.282 73.0819 247.462 73.4216C246.642 73.7612 245.763 73.9361 244.876 73.9361V73.9361Z" fill="#09212D"/>
<path d="M91.8511 162.926C97.5487 162.926 102.168 158.307 102.168 152.61C102.168 146.912 97.5487 142.293 91.8511 142.293C86.1534 142.293 81.5345 146.912 81.5345 152.61C81.5345 158.307 86.1534 162.926 91.8511 162.926Z" fill="white"/>
<path d="M91.8512 137.669C87.9829 137.669 84.273 139.205 81.5377 141.94C78.8024 144.676 77.2657 148.386 77.2657 152.254C77.2657 160.309 91.8512 186.761 91.8512 186.761C91.8512 186.761 106.437 160.309 106.437 152.254C106.437 150.339 106.059 148.442 105.326 146.672C104.593 144.903 103.519 143.295 102.165 141.94C100.81 140.586 99.2024 139.512 97.4328 138.779C95.6632 138.046 93.7666 137.669 91.8512 137.669ZM91.8512 159.369C90.5144 159.369 89.2075 158.972 88.096 158.23C86.9845 157.487 86.1181 156.431 85.6065 155.196C85.095 153.961 84.9611 152.602 85.2219 151.291C85.4827 149.98 86.1265 148.776 87.0718 147.83C88.0171 146.885 89.2214 146.241 90.5325 145.98C91.8437 145.72 93.2027 145.853 94.4378 146.365C95.6729 146.877 96.7285 147.743 97.4712 148.855C98.2139 149.966 98.6103 151.273 98.6103 152.61C98.6103 153.497 98.4355 154.376 98.0958 155.196C97.7561 156.016 97.2582 156.761 96.6306 157.389C96.003 158.017 95.2578 158.515 94.4378 158.854C93.6177 159.194 92.7388 159.369 91.8512 159.369V159.369Z" fill="#09212D"/>
<path d="M58.6411 80.1789C64.3388 80.1789 68.9576 75.56 68.9576 69.8624C68.9576 64.1647 64.3388 59.5458 58.6411 59.5458C52.9435 59.5458 48.3246 64.1647 48.3246 69.8624C48.3246 75.56 52.9435 80.1789 58.6411 80.1789Z" fill="white"/>
<path d="M58.641 54.9058C56.7256 54.9058 54.8289 55.283 53.0593 56.016C51.2898 56.749 49.6819 57.8234 48.3275 59.1778C46.9731 60.5321 45.8988 62.14 45.1658 63.9096C44.4328 65.6792 44.0555 67.5758 44.0555 69.4912C44.0555 77.5465 58.641 103.998 58.641 103.998C58.641 103.998 73.2264 77.5465 73.2264 69.4912C73.2264 67.5758 72.8491 65.6792 72.1161 63.9096C71.3832 62.14 70.3088 60.5321 68.9544 59.1778C67.6 57.8234 65.9922 56.749 64.2226 56.016C62.453 55.283 60.5564 54.9058 58.641 54.9058ZM58.641 76.6061C57.3042 76.606 55.9974 76.2096 54.8858 75.4669C53.7743 74.7242 52.908 73.6686 52.3964 72.4335C51.8848 71.1984 51.751 69.8394 52.0118 68.5283C52.2726 67.2171 52.9163 66.0128 53.8616 65.0675C54.8069 64.1222 56.0112 63.4785 57.3224 63.2177C58.6335 62.9569 59.9925 63.0907 61.2276 63.6023C62.4627 64.1139 63.5183 64.9802 64.261 66.0918C65.0037 67.2033 65.4001 68.5101 65.4001 69.8469C65.4001 70.7346 65.2253 71.6135 64.8856 72.4335C64.5459 73.2536 64.048 73.9987 63.4204 74.6264C62.7927 75.254 62.0477 75.7519 61.2276 76.0916C60.4075 76.4312 59.5286 76.6061 58.641 76.6061V76.6061Z" fill="#09212D"/>
<path d="M148.058 49.4444C153.756 49.4444 158.375 44.8255 158.375 39.1279C158.375 33.4302 153.756 28.8113 148.058 28.8113C142.361 28.8113 137.742 33.4302 137.742 39.1279C137.742 44.8255 142.361 49.4444 148.058 49.4444Z" fill="white"/>
<path d="M148.058 24.1867C144.19 24.1867 140.48 25.7234 137.745 28.4587C135.01 31.194 133.473 34.9038 133.473 38.7721C133.473 46.8274 148.058 73.2791 148.058 73.2791C148.058 73.2791 162.644 46.8274 162.644 38.7721C162.644 34.9038 161.107 31.194 158.372 28.4587C155.637 25.7234 151.927 24.1867 148.058 24.1867V24.1867ZM148.058 45.887C146.722 45.887 145.415 45.4906 144.303 44.7479C143.192 44.0052 142.325 42.9495 141.814 41.7145C141.302 40.4794 141.168 39.1204 141.429 37.8092C141.69 36.4981 142.334 35.2937 143.279 34.3484C144.224 33.4032 145.429 32.7594 146.74 32.4986C148.051 32.2378 149.41 32.3717 150.645 32.8833C151.88 33.3948 152.936 34.2612 153.678 35.3727C154.421 36.4842 154.818 37.791 154.818 39.1279C154.818 40.0155 154.643 40.8944 154.303 41.7145C153.963 42.5345 153.466 43.2797 152.838 43.9073C152.21 44.5349 151.465 45.0328 150.645 45.3725C149.825 45.7122 148.946 45.887 148.058 45.887V45.887Z" fill="#09212D"/>
</svg>
